G04 #@! TF.GenerationSoftware,KiCad,Pcbnew,5.1.5+dfsg1-2build2*
G04 #@! TF.CreationDate,2020-09-01T14:50:31-04:00*
G04 #@! TF.ProjectId,TPS63001Supply,54505336-3330-4303-9153-7570706c792e,rev?*
G04 #@! TF.SameCoordinates,Original*
G04 #@! TF.FileFunction,Legend,Top*
G04 #@! TF.FilePolarity,Positive*
%FSLAX46Y46*%
G04 Gerber Fmt 4.6, Leading zero omitted, Abs format (unit mm)*
G04 Created by KiCad (PCBNEW 5.1.5+dfsg1-2build2) date 2020-09-01 14:50:31*
%MOMM*%
%LPD*%
G04 APERTURE LIST*
%ADD10C,0.150000*%
%ADD11C,0.120000*%
G04 APERTURE END LIST*
D10*
X149951100Y-103553600D02*
X147051100Y-103553600D01*
X149951100Y-106453600D02*
X149951100Y-103553600D01*
X147051100Y-106453600D02*
X149951100Y-106453600D01*
X147051100Y-103553600D02*
X147051100Y-106453600D01*
D11*
X143917600Y-104843948D02*
X143917600Y-105366452D01*
X145337600Y-104843948D02*
X145337600Y-105366452D01*
X150638748Y-109490000D02*
X151161252Y-109490000D01*
X150638748Y-110910000D02*
X151161252Y-110910000D01*
X154990000Y-104838748D02*
X154990000Y-105361252D01*
X156410000Y-104838748D02*
X156410000Y-105361252D01*
X153567200Y-104843948D02*
X153567200Y-105366452D01*
X152147200Y-104843948D02*
X152147200Y-105366452D01*
X161330000Y-98510000D02*
X158670000Y-98510000D01*
X161330000Y-108730000D02*
X161330000Y-98510000D01*
X158670000Y-108730000D02*
X158670000Y-98510000D01*
X161330000Y-108730000D02*
X158670000Y-108730000D01*
X161330000Y-110000000D02*
X161330000Y-111330000D01*
X161330000Y-111330000D02*
X160000000Y-111330000D01*
X147937136Y-97954000D02*
X149141264Y-97954000D01*
X147937136Y-100674000D02*
X149141264Y-100674000D01*
X145838748Y-109490000D02*
X146361252Y-109490000D01*
X145838748Y-110910000D02*
X146361252Y-110910000D01*
D10*
X147738095Y-101452380D02*
X147738095Y-102261904D01*
X147785714Y-102357142D01*
X147833333Y-102404761D01*
X147928571Y-102452380D01*
X148119047Y-102452380D01*
X148214285Y-102404761D01*
X148261904Y-102357142D01*
X148309523Y-102261904D01*
X148309523Y-101452380D01*
X149309523Y-102452380D02*
X148738095Y-102452380D01*
X149023809Y-102452380D02*
X149023809Y-101452380D01*
X148928571Y-101595238D01*
X148833333Y-101690476D01*
X148738095Y-101738095D01*
X144433333Y-102657142D02*
X144385714Y-102704761D01*
X144242857Y-102752380D01*
X144147619Y-102752380D01*
X144004761Y-102704761D01*
X143909523Y-102609523D01*
X143861904Y-102514285D01*
X143814285Y-102323809D01*
X143814285Y-102180952D01*
X143861904Y-101990476D01*
X143909523Y-101895238D01*
X144004761Y-101800000D01*
X144147619Y-101752380D01*
X144242857Y-101752380D01*
X144385714Y-101800000D01*
X144433333Y-101847619D01*
X145385714Y-102752380D02*
X144814285Y-102752380D01*
X145100000Y-102752380D02*
X145100000Y-101752380D01*
X145004761Y-101895238D01*
X144909523Y-101990476D01*
X144814285Y-102038095D01*
X150533333Y-108857142D02*
X150485714Y-108904761D01*
X150342857Y-108952380D01*
X150247619Y-108952380D01*
X150104761Y-108904761D01*
X150009523Y-108809523D01*
X149961904Y-108714285D01*
X149914285Y-108523809D01*
X149914285Y-108380952D01*
X149961904Y-108190476D01*
X150009523Y-108095238D01*
X150104761Y-108000000D01*
X150247619Y-107952380D01*
X150342857Y-107952380D01*
X150485714Y-108000000D01*
X150533333Y-108047619D01*
X150914285Y-108047619D02*
X150961904Y-108000000D01*
X151057142Y-107952380D01*
X151295238Y-107952380D01*
X151390476Y-108000000D01*
X151438095Y-108047619D01*
X151485714Y-108142857D01*
X151485714Y-108238095D01*
X151438095Y-108380952D01*
X150866666Y-108952380D01*
X151485714Y-108952380D01*
X155433333Y-102857142D02*
X155385714Y-102904761D01*
X155242857Y-102952380D01*
X155147619Y-102952380D01*
X155004761Y-102904761D01*
X154909523Y-102809523D01*
X154861904Y-102714285D01*
X154814285Y-102523809D01*
X154814285Y-102380952D01*
X154861904Y-102190476D01*
X154909523Y-102095238D01*
X155004761Y-102000000D01*
X155147619Y-101952380D01*
X155242857Y-101952380D01*
X155385714Y-102000000D01*
X155433333Y-102047619D01*
X155766666Y-101952380D02*
X156385714Y-101952380D01*
X156052380Y-102333333D01*
X156195238Y-102333333D01*
X156290476Y-102380952D01*
X156338095Y-102428571D01*
X156385714Y-102523809D01*
X156385714Y-102761904D01*
X156338095Y-102857142D01*
X156290476Y-102904761D01*
X156195238Y-102952380D01*
X155909523Y-102952380D01*
X155814285Y-102904761D01*
X155766666Y-102857142D01*
X152633333Y-102857142D02*
X152585714Y-102904761D01*
X152442857Y-102952380D01*
X152347619Y-102952380D01*
X152204761Y-102904761D01*
X152109523Y-102809523D01*
X152061904Y-102714285D01*
X152014285Y-102523809D01*
X152014285Y-102380952D01*
X152061904Y-102190476D01*
X152109523Y-102095238D01*
X152204761Y-102000000D01*
X152347619Y-101952380D01*
X152442857Y-101952380D01*
X152585714Y-102000000D01*
X152633333Y-102047619D01*
X153490476Y-102285714D02*
X153490476Y-102952380D01*
X153252380Y-101904761D02*
X153014285Y-102619047D01*
X153633333Y-102619047D01*
X157166666Y-109752380D02*
X157166666Y-110466666D01*
X157119047Y-110609523D01*
X157023809Y-110704761D01*
X156880952Y-110752380D01*
X156785714Y-110752380D01*
X158166666Y-110752380D02*
X157595238Y-110752380D01*
X157880952Y-110752380D02*
X157880952Y-109752380D01*
X157785714Y-109895238D01*
X157690476Y-109990476D01*
X157595238Y-110038095D01*
X148372533Y-97486380D02*
X147896342Y-97486380D01*
X147896342Y-96486380D01*
X149229676Y-97486380D02*
X148658247Y-97486380D01*
X148943961Y-97486380D02*
X148943961Y-96486380D01*
X148848723Y-96629238D01*
X148753485Y-96724476D01*
X148658247Y-96772095D01*
X145933333Y-109002380D02*
X145600000Y-108526190D01*
X145361904Y-109002380D02*
X145361904Y-108002380D01*
X145742857Y-108002380D01*
X145838095Y-108050000D01*
X145885714Y-108097619D01*
X145933333Y-108192857D01*
X145933333Y-108335714D01*
X145885714Y-108430952D01*
X145838095Y-108478571D01*
X145742857Y-108526190D01*
X145361904Y-108526190D01*
X146885714Y-109002380D02*
X146314285Y-109002380D01*
X146600000Y-109002380D02*
X146600000Y-108002380D01*
X146504761Y-108145238D01*
X146409523Y-108240476D01*
X146314285Y-108288095D01*
M02*
