G04 #@! TF.GenerationSoftware,KiCad,Pcbnew,5.1.5+dfsg1-2build2*
G04 #@! TF.CreationDate,2020-09-01T14:50:31-04:00*
G04 #@! TF.ProjectId,TPS63001Supply,54505336-3330-4303-9153-7570706c792e,rev?*
G04 #@! TF.SameCoordinates,Original*
G04 #@! TF.FileFunction,Copper,L2,Bot*
G04 #@! TF.FilePolarity,Positive*
%FSLAX46Y46*%
G04 Gerber Fmt 4.6, Leading zero omitted, Abs format (unit mm)*
G04 Created by KiCad (PCBNEW 5.1.5+dfsg1-2build2) date 2020-09-01 14:50:31*
%MOMM*%
%LPD*%
G04 APERTURE LIST*
%ADD10R,1.700000X1.700000*%
%ADD11O,1.700000X1.700000*%
%ADD12C,0.685800*%
%ADD13C,0.304800*%
%ADD14C,0.254000*%
G04 APERTURE END LIST*
D10*
X160000000Y-110000000D03*
D11*
X160000000Y-107460000D03*
X160000000Y-104920000D03*
X160000000Y-102380000D03*
X160000000Y-99840000D03*
D12*
X144600000Y-102500000D03*
X146253200Y-107670600D03*
X147548600Y-107696000D03*
D13*
X144720000Y-102380000D02*
X144600000Y-102500000D01*
X160000000Y-102380000D02*
X144720000Y-102380000D01*
X146596099Y-108013499D02*
X146253200Y-107670600D01*
X146926301Y-108343701D02*
X146596099Y-108013499D01*
X159116299Y-108343701D02*
X146926301Y-108343701D01*
X160000000Y-107460000D02*
X159116299Y-108343701D01*
X160000000Y-104920000D02*
X154980000Y-104920000D01*
X152204000Y-107696000D02*
X147548600Y-107696000D01*
X154980000Y-104920000D02*
X152204000Y-107696000D01*
D14*
G36*
X161544000Y-114044000D02*
G01*
X142456000Y-114044000D01*
X142456000Y-110850000D01*
X158511928Y-110850000D01*
X158524188Y-110974482D01*
X158560498Y-111094180D01*
X158619463Y-111204494D01*
X158698815Y-111301185D01*
X158795506Y-111380537D01*
X158905820Y-111439502D01*
X159025518Y-111475812D01*
X159150000Y-111488072D01*
X159714250Y-111485000D01*
X159873000Y-111326250D01*
X159873000Y-110127000D01*
X160127000Y-110127000D01*
X160127000Y-111326250D01*
X160285750Y-111485000D01*
X160850000Y-111488072D01*
X160974482Y-111475812D01*
X161094180Y-111439502D01*
X161204494Y-111380537D01*
X161301185Y-111301185D01*
X161380537Y-111204494D01*
X161439502Y-111094180D01*
X161475812Y-110974482D01*
X161488072Y-110850000D01*
X161485000Y-110285750D01*
X161326250Y-110127000D01*
X160127000Y-110127000D01*
X159873000Y-110127000D01*
X158673750Y-110127000D01*
X158515000Y-110285750D01*
X158511928Y-110850000D01*
X142456000Y-110850000D01*
X142456000Y-107599302D01*
X145529300Y-107599302D01*
X145529300Y-107741898D01*
X145557119Y-107881754D01*
X145611688Y-108013495D01*
X145690910Y-108132060D01*
X145791740Y-108232890D01*
X145910305Y-108312112D01*
X146042046Y-108366681D01*
X146181902Y-108394500D01*
X146222759Y-108394500D01*
X146530605Y-108702346D01*
X146547306Y-108722696D01*
X146628526Y-108789352D01*
X146721190Y-108838882D01*
X146821736Y-108869382D01*
X146900106Y-108877101D01*
X146900113Y-108877101D01*
X146926300Y-108879680D01*
X146952487Y-108877101D01*
X158575849Y-108877101D01*
X158560498Y-108905820D01*
X158524188Y-109025518D01*
X158511928Y-109150000D01*
X158515000Y-109714250D01*
X158673750Y-109873000D01*
X159873000Y-109873000D01*
X159873000Y-109853000D01*
X160127000Y-109853000D01*
X160127000Y-109873000D01*
X161326250Y-109873000D01*
X161485000Y-109714250D01*
X161488072Y-109150000D01*
X161475812Y-109025518D01*
X161439502Y-108905820D01*
X161380537Y-108795506D01*
X161301185Y-108698815D01*
X161204494Y-108619463D01*
X161094180Y-108560498D01*
X160974482Y-108524188D01*
X160850000Y-108511928D01*
X160639706Y-108513073D01*
X160784717Y-108416180D01*
X160956180Y-108244717D01*
X161090898Y-108043097D01*
X161183693Y-107819069D01*
X161231000Y-107581243D01*
X161231000Y-107338757D01*
X161183693Y-107100931D01*
X161090898Y-106876903D01*
X160956180Y-106675283D01*
X160784717Y-106503820D01*
X160583097Y-106369102D01*
X160359069Y-106276307D01*
X160121243Y-106229000D01*
X159878757Y-106229000D01*
X159640931Y-106276307D01*
X159416903Y-106369102D01*
X159215283Y-106503820D01*
X159043820Y-106675283D01*
X158909102Y-106876903D01*
X158816307Y-107100931D01*
X158769000Y-107338757D01*
X158769000Y-107581243D01*
X158814563Y-107810301D01*
X152844040Y-107810301D01*
X155200941Y-105453400D01*
X158888517Y-105453400D01*
X158909102Y-105503097D01*
X159043820Y-105704717D01*
X159215283Y-105876180D01*
X159416903Y-106010898D01*
X159640931Y-106103693D01*
X159878757Y-106151000D01*
X160121243Y-106151000D01*
X160359069Y-106103693D01*
X160583097Y-106010898D01*
X160784717Y-105876180D01*
X160956180Y-105704717D01*
X161090898Y-105503097D01*
X161183693Y-105279069D01*
X161231000Y-105041243D01*
X161231000Y-104798757D01*
X161183693Y-104560931D01*
X161090898Y-104336903D01*
X160956180Y-104135283D01*
X160784717Y-103963820D01*
X160583097Y-103829102D01*
X160359069Y-103736307D01*
X160121243Y-103689000D01*
X159878757Y-103689000D01*
X159640931Y-103736307D01*
X159416903Y-103829102D01*
X159215283Y-103963820D01*
X159043820Y-104135283D01*
X158909102Y-104336903D01*
X158888517Y-104386600D01*
X155006187Y-104386600D01*
X154980000Y-104384021D01*
X154953813Y-104386600D01*
X154953805Y-104386600D01*
X154875435Y-104394319D01*
X154774889Y-104424819D01*
X154682225Y-104474349D01*
X154601005Y-104541005D01*
X154584304Y-104561355D01*
X151983059Y-107162600D01*
X148038950Y-107162600D01*
X148010060Y-107133710D01*
X147891495Y-107054488D01*
X147759754Y-106999919D01*
X147619898Y-106972100D01*
X147477302Y-106972100D01*
X147337446Y-106999919D01*
X147205705Y-107054488D01*
X147087140Y-107133710D01*
X146986310Y-107234540D01*
X146907088Y-107353105D01*
X146906161Y-107355344D01*
X146894712Y-107327705D01*
X146815490Y-107209140D01*
X146714660Y-107108310D01*
X146596095Y-107029088D01*
X146464354Y-106974519D01*
X146324498Y-106946700D01*
X146181902Y-106946700D01*
X146042046Y-106974519D01*
X145910305Y-107029088D01*
X145791740Y-107108310D01*
X145690910Y-107209140D01*
X145611688Y-107327705D01*
X145557119Y-107459446D01*
X145529300Y-107599302D01*
X142456000Y-107599302D01*
X142456000Y-102428702D01*
X143876100Y-102428702D01*
X143876100Y-102571298D01*
X143903919Y-102711154D01*
X143958488Y-102842895D01*
X144037710Y-102961460D01*
X144138540Y-103062290D01*
X144257105Y-103141512D01*
X144388846Y-103196081D01*
X144528702Y-103223900D01*
X144671298Y-103223900D01*
X144811154Y-103196081D01*
X144942895Y-103141512D01*
X145061460Y-103062290D01*
X145162290Y-102961460D01*
X145194402Y-102913400D01*
X158888517Y-102913400D01*
X158909102Y-102963097D01*
X159043820Y-103164717D01*
X159215283Y-103336180D01*
X159416903Y-103470898D01*
X159640931Y-103563693D01*
X159878757Y-103611000D01*
X160121243Y-103611000D01*
X160359069Y-103563693D01*
X160583097Y-103470898D01*
X160784717Y-103336180D01*
X160956180Y-103164717D01*
X161090898Y-102963097D01*
X161183693Y-102739069D01*
X161231000Y-102501243D01*
X161231000Y-102258757D01*
X161183693Y-102020931D01*
X161090898Y-101796903D01*
X160956180Y-101595283D01*
X160784717Y-101423820D01*
X160583097Y-101289102D01*
X160359069Y-101196307D01*
X160121243Y-101149000D01*
X159878757Y-101149000D01*
X159640931Y-101196307D01*
X159416903Y-101289102D01*
X159215283Y-101423820D01*
X159043820Y-101595283D01*
X158909102Y-101796903D01*
X158888517Y-101846600D01*
X144914195Y-101846600D01*
X144811154Y-101803919D01*
X144671298Y-101776100D01*
X144528702Y-101776100D01*
X144388846Y-101803919D01*
X144257105Y-101858488D01*
X144138540Y-101937710D01*
X144037710Y-102038540D01*
X143958488Y-102157105D01*
X143903919Y-102288846D01*
X143876100Y-102428702D01*
X142456000Y-102428702D01*
X142456000Y-99718757D01*
X158769000Y-99718757D01*
X158769000Y-99961243D01*
X158816307Y-100199069D01*
X158909102Y-100423097D01*
X159043820Y-100624717D01*
X159215283Y-100796180D01*
X159416903Y-100930898D01*
X159640931Y-101023693D01*
X159878757Y-101071000D01*
X160121243Y-101071000D01*
X160359069Y-101023693D01*
X160583097Y-100930898D01*
X160784717Y-100796180D01*
X160956180Y-100624717D01*
X161090898Y-100423097D01*
X161183693Y-100199069D01*
X161231000Y-99961243D01*
X161231000Y-99718757D01*
X161183693Y-99480931D01*
X161090898Y-99256903D01*
X160956180Y-99055283D01*
X160784717Y-98883820D01*
X160583097Y-98749102D01*
X160359069Y-98656307D01*
X160121243Y-98609000D01*
X159878757Y-98609000D01*
X159640931Y-98656307D01*
X159416903Y-98749102D01*
X159215283Y-98883820D01*
X159043820Y-99055283D01*
X158909102Y-99256903D01*
X158816307Y-99480931D01*
X158769000Y-99718757D01*
X142456000Y-99718757D01*
X142456000Y-94956000D01*
X161544001Y-94956000D01*
X161544000Y-114044000D01*
G37*
X161544000Y-114044000D02*
X142456000Y-114044000D01*
X142456000Y-110850000D01*
X158511928Y-110850000D01*
X158524188Y-110974482D01*
X158560498Y-111094180D01*
X158619463Y-111204494D01*
X158698815Y-111301185D01*
X158795506Y-111380537D01*
X158905820Y-111439502D01*
X159025518Y-111475812D01*
X159150000Y-111488072D01*
X159714250Y-111485000D01*
X159873000Y-111326250D01*
X159873000Y-110127000D01*
X160127000Y-110127000D01*
X160127000Y-111326250D01*
X160285750Y-111485000D01*
X160850000Y-111488072D01*
X160974482Y-111475812D01*
X161094180Y-111439502D01*
X161204494Y-111380537D01*
X161301185Y-111301185D01*
X161380537Y-111204494D01*
X161439502Y-111094180D01*
X161475812Y-110974482D01*
X161488072Y-110850000D01*
X161485000Y-110285750D01*
X161326250Y-110127000D01*
X160127000Y-110127000D01*
X159873000Y-110127000D01*
X158673750Y-110127000D01*
X158515000Y-110285750D01*
X158511928Y-110850000D01*
X142456000Y-110850000D01*
X142456000Y-107599302D01*
X145529300Y-107599302D01*
X145529300Y-107741898D01*
X145557119Y-107881754D01*
X145611688Y-108013495D01*
X145690910Y-108132060D01*
X145791740Y-108232890D01*
X145910305Y-108312112D01*
X146042046Y-108366681D01*
X146181902Y-108394500D01*
X146222759Y-108394500D01*
X146530605Y-108702346D01*
X146547306Y-108722696D01*
X146628526Y-108789352D01*
X146721190Y-108838882D01*
X146821736Y-108869382D01*
X146900106Y-108877101D01*
X146900113Y-108877101D01*
X146926300Y-108879680D01*
X146952487Y-108877101D01*
X158575849Y-108877101D01*
X158560498Y-108905820D01*
X158524188Y-109025518D01*
X158511928Y-109150000D01*
X158515000Y-109714250D01*
X158673750Y-109873000D01*
X159873000Y-109873000D01*
X159873000Y-109853000D01*
X160127000Y-109853000D01*
X160127000Y-109873000D01*
X161326250Y-109873000D01*
X161485000Y-109714250D01*
X161488072Y-109150000D01*
X161475812Y-109025518D01*
X161439502Y-108905820D01*
X161380537Y-108795506D01*
X161301185Y-108698815D01*
X161204494Y-108619463D01*
X161094180Y-108560498D01*
X160974482Y-108524188D01*
X160850000Y-108511928D01*
X160639706Y-108513073D01*
X160784717Y-108416180D01*
X160956180Y-108244717D01*
X161090898Y-108043097D01*
X161183693Y-107819069D01*
X161231000Y-107581243D01*
X161231000Y-107338757D01*
X161183693Y-107100931D01*
X161090898Y-106876903D01*
X160956180Y-106675283D01*
X160784717Y-106503820D01*
X160583097Y-106369102D01*
X160359069Y-106276307D01*
X160121243Y-106229000D01*
X159878757Y-106229000D01*
X159640931Y-106276307D01*
X159416903Y-106369102D01*
X159215283Y-106503820D01*
X159043820Y-106675283D01*
X158909102Y-106876903D01*
X158816307Y-107100931D01*
X158769000Y-107338757D01*
X158769000Y-107581243D01*
X158814563Y-107810301D01*
X152844040Y-107810301D01*
X155200941Y-105453400D01*
X158888517Y-105453400D01*
X158909102Y-105503097D01*
X159043820Y-105704717D01*
X159215283Y-105876180D01*
X159416903Y-106010898D01*
X159640931Y-106103693D01*
X159878757Y-106151000D01*
X160121243Y-106151000D01*
X160359069Y-106103693D01*
X160583097Y-106010898D01*
X160784717Y-105876180D01*
X160956180Y-105704717D01*
X161090898Y-105503097D01*
X161183693Y-105279069D01*
X161231000Y-105041243D01*
X161231000Y-104798757D01*
X161183693Y-104560931D01*
X161090898Y-104336903D01*
X160956180Y-104135283D01*
X160784717Y-103963820D01*
X160583097Y-103829102D01*
X160359069Y-103736307D01*
X160121243Y-103689000D01*
X159878757Y-103689000D01*
X159640931Y-103736307D01*
X159416903Y-103829102D01*
X159215283Y-103963820D01*
X159043820Y-104135283D01*
X158909102Y-104336903D01*
X158888517Y-104386600D01*
X155006187Y-104386600D01*
X154980000Y-104384021D01*
X154953813Y-104386600D01*
X154953805Y-104386600D01*
X154875435Y-104394319D01*
X154774889Y-104424819D01*
X154682225Y-104474349D01*
X154601005Y-104541005D01*
X154584304Y-104561355D01*
X151983059Y-107162600D01*
X148038950Y-107162600D01*
X148010060Y-107133710D01*
X147891495Y-107054488D01*
X147759754Y-106999919D01*
X147619898Y-106972100D01*
X147477302Y-106972100D01*
X147337446Y-106999919D01*
X147205705Y-107054488D01*
X147087140Y-107133710D01*
X146986310Y-107234540D01*
X146907088Y-107353105D01*
X146906161Y-107355344D01*
X146894712Y-107327705D01*
X146815490Y-107209140D01*
X146714660Y-107108310D01*
X146596095Y-107029088D01*
X146464354Y-106974519D01*
X146324498Y-106946700D01*
X146181902Y-106946700D01*
X146042046Y-106974519D01*
X145910305Y-107029088D01*
X145791740Y-107108310D01*
X145690910Y-107209140D01*
X145611688Y-107327705D01*
X145557119Y-107459446D01*
X145529300Y-107599302D01*
X142456000Y-107599302D01*
X142456000Y-102428702D01*
X143876100Y-102428702D01*
X143876100Y-102571298D01*
X143903919Y-102711154D01*
X143958488Y-102842895D01*
X144037710Y-102961460D01*
X144138540Y-103062290D01*
X144257105Y-103141512D01*
X144388846Y-103196081D01*
X144528702Y-103223900D01*
X144671298Y-103223900D01*
X144811154Y-103196081D01*
X144942895Y-103141512D01*
X145061460Y-103062290D01*
X145162290Y-102961460D01*
X145194402Y-102913400D01*
X158888517Y-102913400D01*
X158909102Y-102963097D01*
X159043820Y-103164717D01*
X159215283Y-103336180D01*
X159416903Y-103470898D01*
X159640931Y-103563693D01*
X159878757Y-103611000D01*
X160121243Y-103611000D01*
X160359069Y-103563693D01*
X160583097Y-103470898D01*
X160784717Y-103336180D01*
X160956180Y-103164717D01*
X161090898Y-102963097D01*
X161183693Y-102739069D01*
X161231000Y-102501243D01*
X161231000Y-102258757D01*
X161183693Y-102020931D01*
X161090898Y-101796903D01*
X160956180Y-101595283D01*
X160784717Y-101423820D01*
X160583097Y-101289102D01*
X160359069Y-101196307D01*
X160121243Y-101149000D01*
X159878757Y-101149000D01*
X159640931Y-101196307D01*
X159416903Y-101289102D01*
X159215283Y-101423820D01*
X159043820Y-101595283D01*
X158909102Y-101796903D01*
X158888517Y-101846600D01*
X144914195Y-101846600D01*
X144811154Y-101803919D01*
X144671298Y-101776100D01*
X144528702Y-101776100D01*
X144388846Y-101803919D01*
X144257105Y-101858488D01*
X144138540Y-101937710D01*
X144037710Y-102038540D01*
X143958488Y-102157105D01*
X143903919Y-102288846D01*
X143876100Y-102428702D01*
X142456000Y-102428702D01*
X142456000Y-99718757D01*
X158769000Y-99718757D01*
X158769000Y-99961243D01*
X158816307Y-100199069D01*
X158909102Y-100423097D01*
X159043820Y-100624717D01*
X159215283Y-100796180D01*
X159416903Y-100930898D01*
X159640931Y-101023693D01*
X159878757Y-101071000D01*
X160121243Y-101071000D01*
X160359069Y-101023693D01*
X160583097Y-100930898D01*
X160784717Y-100796180D01*
X160956180Y-100624717D01*
X161090898Y-100423097D01*
X161183693Y-100199069D01*
X161231000Y-99961243D01*
X161231000Y-99718757D01*
X161183693Y-99480931D01*
X161090898Y-99256903D01*
X160956180Y-99055283D01*
X160784717Y-98883820D01*
X160583097Y-98749102D01*
X160359069Y-98656307D01*
X160121243Y-98609000D01*
X159878757Y-98609000D01*
X159640931Y-98656307D01*
X159416903Y-98749102D01*
X159215283Y-98883820D01*
X159043820Y-99055283D01*
X158909102Y-99256903D01*
X158816307Y-99480931D01*
X158769000Y-99718757D01*
X142456000Y-99718757D01*
X142456000Y-94956000D01*
X161544001Y-94956000D01*
X161544000Y-114044000D01*
M02*
