G04 #@! TF.GenerationSoftware,KiCad,Pcbnew,5.1.5+dfsg1-2build2*
G04 #@! TF.CreationDate,2020-09-01T14:50:31-04:00*
G04 #@! TF.ProjectId,TPS63001Supply,54505336-3330-4303-9153-7570706c792e,rev?*
G04 #@! TF.SameCoordinates,Original*
G04 #@! TF.FileFunction,Soldermask,Bot*
G04 #@! TF.FilePolarity,Negative*
%FSLAX46Y46*%
G04 Gerber Fmt 4.6, Leading zero omitted, Abs format (unit mm)*
G04 Created by KiCad (PCBNEW 5.1.5+dfsg1-2build2) date 2020-09-01 14:50:31*
%MOMM*%
%LPD*%
G04 APERTURE LIST*
%ADD10C,0.100000*%
G04 APERTURE END LIST*
D10*
G36*
X160900000Y-110900000D02*
G01*
X159100000Y-110900000D01*
X159100000Y-109100000D01*
X160900000Y-109100000D01*
X160900000Y-110900000D01*
G37*
G36*
X160262520Y-106594586D02*
G01*
X160426310Y-106662430D01*
X160573717Y-106760924D01*
X160699076Y-106886283D01*
X160797570Y-107033690D01*
X160865414Y-107197480D01*
X160900000Y-107371358D01*
X160900000Y-107548642D01*
X160865414Y-107722520D01*
X160797570Y-107886310D01*
X160699076Y-108033717D01*
X160573717Y-108159076D01*
X160426310Y-108257570D01*
X160262520Y-108325414D01*
X160088642Y-108360000D01*
X159911358Y-108360000D01*
X159737480Y-108325414D01*
X159573690Y-108257570D01*
X159426283Y-108159076D01*
X159300924Y-108033717D01*
X159202430Y-107886310D01*
X159134586Y-107722520D01*
X159100000Y-107548642D01*
X159100000Y-107371358D01*
X159134586Y-107197480D01*
X159202430Y-107033690D01*
X159300924Y-106886283D01*
X159426283Y-106760924D01*
X159573690Y-106662430D01*
X159737480Y-106594586D01*
X159911358Y-106560000D01*
X160088642Y-106560000D01*
X160262520Y-106594586D01*
G37*
G36*
X160262520Y-104054586D02*
G01*
X160426310Y-104122430D01*
X160573717Y-104220924D01*
X160699076Y-104346283D01*
X160797570Y-104493690D01*
X160865414Y-104657480D01*
X160900000Y-104831358D01*
X160900000Y-105008642D01*
X160865414Y-105182520D01*
X160797570Y-105346310D01*
X160699076Y-105493717D01*
X160573717Y-105619076D01*
X160426310Y-105717570D01*
X160262520Y-105785414D01*
X160088642Y-105820000D01*
X159911358Y-105820000D01*
X159737480Y-105785414D01*
X159573690Y-105717570D01*
X159426283Y-105619076D01*
X159300924Y-105493717D01*
X159202430Y-105346310D01*
X159134586Y-105182520D01*
X159100000Y-105008642D01*
X159100000Y-104831358D01*
X159134586Y-104657480D01*
X159202430Y-104493690D01*
X159300924Y-104346283D01*
X159426283Y-104220924D01*
X159573690Y-104122430D01*
X159737480Y-104054586D01*
X159911358Y-104020000D01*
X160088642Y-104020000D01*
X160262520Y-104054586D01*
G37*
G36*
X160262520Y-101514586D02*
G01*
X160426310Y-101582430D01*
X160573717Y-101680924D01*
X160699076Y-101806283D01*
X160797570Y-101953690D01*
X160865414Y-102117480D01*
X160900000Y-102291358D01*
X160900000Y-102468642D01*
X160865414Y-102642520D01*
X160797570Y-102806310D01*
X160699076Y-102953717D01*
X160573717Y-103079076D01*
X160426310Y-103177570D01*
X160262520Y-103245414D01*
X160088642Y-103280000D01*
X159911358Y-103280000D01*
X159737480Y-103245414D01*
X159573690Y-103177570D01*
X159426283Y-103079076D01*
X159300924Y-102953717D01*
X159202430Y-102806310D01*
X159134586Y-102642520D01*
X159100000Y-102468642D01*
X159100000Y-102291358D01*
X159134586Y-102117480D01*
X159202430Y-101953690D01*
X159300924Y-101806283D01*
X159426283Y-101680924D01*
X159573690Y-101582430D01*
X159737480Y-101514586D01*
X159911358Y-101480000D01*
X160088642Y-101480000D01*
X160262520Y-101514586D01*
G37*
G36*
X160262520Y-98974586D02*
G01*
X160426310Y-99042430D01*
X160573717Y-99140924D01*
X160699076Y-99266283D01*
X160797570Y-99413690D01*
X160865414Y-99577480D01*
X160900000Y-99751358D01*
X160900000Y-99928642D01*
X160865414Y-100102520D01*
X160797570Y-100266310D01*
X160699076Y-100413717D01*
X160573717Y-100539076D01*
X160426310Y-100637570D01*
X160262520Y-100705414D01*
X160088642Y-100740000D01*
X159911358Y-100740000D01*
X159737480Y-100705414D01*
X159573690Y-100637570D01*
X159426283Y-100539076D01*
X159300924Y-100413717D01*
X159202430Y-100266310D01*
X159134586Y-100102520D01*
X159100000Y-99928642D01*
X159100000Y-99751358D01*
X159134586Y-99577480D01*
X159202430Y-99413690D01*
X159300924Y-99266283D01*
X159426283Y-99140924D01*
X159573690Y-99042430D01*
X159737480Y-98974586D01*
X159911358Y-98940000D01*
X160088642Y-98940000D01*
X160262520Y-98974586D01*
G37*
M02*
