G04 #@! TF.GenerationSoftware,KiCad,Pcbnew,5.1.5+dfsg1-2build2*
G04 #@! TF.CreationDate,2020-09-01T14:50:31-04:00*
G04 #@! TF.ProjectId,TPS63001Supply,54505336-3330-4303-9153-7570706c792e,rev?*
G04 #@! TF.SameCoordinates,Original*
G04 #@! TF.FileFunction,Copper,L1,Top*
G04 #@! TF.FilePolarity,Positive*
%FSLAX46Y46*%
G04 Gerber Fmt 4.6, Leading zero omitted, Abs format (unit mm)*
G04 Created by KiCad (PCBNEW 5.1.5+dfsg1-2build2) date 2020-09-01 14:50:31*
%MOMM*%
%LPD*%
G04 APERTURE LIST*
%ADD10R,0.250000X0.800000*%
%ADD11R,2.200000X1.450000*%
%ADD12C,0.100000*%
%ADD13R,1.700000X1.700000*%
%ADD14O,1.700000X1.700000*%
%ADD15C,0.685800*%
%ADD16C,0.304800*%
%ADD17C,0.254000*%
%ADD18C,0.152400*%
%ADD19C,0.200000*%
%ADD20C,0.508000*%
G04 APERTURE END LIST*
D10*
X149501100Y-103503600D03*
X149001100Y-103503600D03*
X148501100Y-103503600D03*
X148001100Y-103503600D03*
X147501100Y-103503600D03*
X147501100Y-106503600D03*
X148001100Y-106503600D03*
X148501100Y-106503600D03*
X149001100Y-106503600D03*
X149501100Y-106503600D03*
D11*
X148501100Y-105003600D03*
G04 #@! TA.AperFunction,SMDPad,CuDef*
D12*
G36*
X145102105Y-105556404D02*
G01*
X145126373Y-105560004D01*
X145150172Y-105565965D01*
X145173271Y-105574230D01*
X145195450Y-105584720D01*
X145216493Y-105597332D01*
X145236199Y-105611947D01*
X145254377Y-105628423D01*
X145270853Y-105646601D01*
X145285468Y-105666307D01*
X145298080Y-105687350D01*
X145308570Y-105709529D01*
X145316835Y-105732628D01*
X145322796Y-105756427D01*
X145326396Y-105780695D01*
X145327600Y-105805199D01*
X145327600Y-106455201D01*
X145326396Y-106479705D01*
X145322796Y-106503973D01*
X145316835Y-106527772D01*
X145308570Y-106550871D01*
X145298080Y-106573050D01*
X145285468Y-106594093D01*
X145270853Y-106613799D01*
X145254377Y-106631977D01*
X145236199Y-106648453D01*
X145216493Y-106663068D01*
X145195450Y-106675680D01*
X145173271Y-106686170D01*
X145150172Y-106694435D01*
X145126373Y-106700396D01*
X145102105Y-106703996D01*
X145077601Y-106705200D01*
X144177599Y-106705200D01*
X144153095Y-106703996D01*
X144128827Y-106700396D01*
X144105028Y-106694435D01*
X144081929Y-106686170D01*
X144059750Y-106675680D01*
X144038707Y-106663068D01*
X144019001Y-106648453D01*
X144000823Y-106631977D01*
X143984347Y-106613799D01*
X143969732Y-106594093D01*
X143957120Y-106573050D01*
X143946630Y-106550871D01*
X143938365Y-106527772D01*
X143932404Y-106503973D01*
X143928804Y-106479705D01*
X143927600Y-106455201D01*
X143927600Y-105805199D01*
X143928804Y-105780695D01*
X143932404Y-105756427D01*
X143938365Y-105732628D01*
X143946630Y-105709529D01*
X143957120Y-105687350D01*
X143969732Y-105666307D01*
X143984347Y-105646601D01*
X144000823Y-105628423D01*
X144019001Y-105611947D01*
X144038707Y-105597332D01*
X144059750Y-105584720D01*
X144081929Y-105574230D01*
X144105028Y-105565965D01*
X144128827Y-105560004D01*
X144153095Y-105556404D01*
X144177599Y-105555200D01*
X145077601Y-105555200D01*
X145102105Y-105556404D01*
G37*
G04 #@! TD.AperFunction*
G04 #@! TA.AperFunction,SMDPad,CuDef*
G36*
X145102105Y-103506404D02*
G01*
X145126373Y-103510004D01*
X145150172Y-103515965D01*
X145173271Y-103524230D01*
X145195450Y-103534720D01*
X145216493Y-103547332D01*
X145236199Y-103561947D01*
X145254377Y-103578423D01*
X145270853Y-103596601D01*
X145285468Y-103616307D01*
X145298080Y-103637350D01*
X145308570Y-103659529D01*
X145316835Y-103682628D01*
X145322796Y-103706427D01*
X145326396Y-103730695D01*
X145327600Y-103755199D01*
X145327600Y-104405201D01*
X145326396Y-104429705D01*
X145322796Y-104453973D01*
X145316835Y-104477772D01*
X145308570Y-104500871D01*
X145298080Y-104523050D01*
X145285468Y-104544093D01*
X145270853Y-104563799D01*
X145254377Y-104581977D01*
X145236199Y-104598453D01*
X145216493Y-104613068D01*
X145195450Y-104625680D01*
X145173271Y-104636170D01*
X145150172Y-104644435D01*
X145126373Y-104650396D01*
X145102105Y-104653996D01*
X145077601Y-104655200D01*
X144177599Y-104655200D01*
X144153095Y-104653996D01*
X144128827Y-104650396D01*
X144105028Y-104644435D01*
X144081929Y-104636170D01*
X144059750Y-104625680D01*
X144038707Y-104613068D01*
X144019001Y-104598453D01*
X144000823Y-104581977D01*
X143984347Y-104563799D01*
X143969732Y-104544093D01*
X143957120Y-104523050D01*
X143946630Y-104500871D01*
X143938365Y-104477772D01*
X143932404Y-104453973D01*
X143928804Y-104429705D01*
X143927600Y-104405201D01*
X143927600Y-103755199D01*
X143928804Y-103730695D01*
X143932404Y-103706427D01*
X143938365Y-103682628D01*
X143946630Y-103659529D01*
X143957120Y-103637350D01*
X143969732Y-103616307D01*
X143984347Y-103596601D01*
X144000823Y-103578423D01*
X144019001Y-103561947D01*
X144038707Y-103547332D01*
X144059750Y-103534720D01*
X144081929Y-103524230D01*
X144105028Y-103515965D01*
X144128827Y-103510004D01*
X144153095Y-103506404D01*
X144177599Y-103505200D01*
X145077601Y-103505200D01*
X145102105Y-103506404D01*
G37*
G04 #@! TD.AperFunction*
G04 #@! TA.AperFunction,SMDPad,CuDef*
G36*
X150224505Y-109501204D02*
G01*
X150248773Y-109504804D01*
X150272572Y-109510765D01*
X150295671Y-109519030D01*
X150317850Y-109529520D01*
X150338893Y-109542132D01*
X150358599Y-109556747D01*
X150376777Y-109573223D01*
X150393253Y-109591401D01*
X150407868Y-109611107D01*
X150420480Y-109632150D01*
X150430970Y-109654329D01*
X150439235Y-109677428D01*
X150445196Y-109701227D01*
X150448796Y-109725495D01*
X150450000Y-109749999D01*
X150450000Y-110650001D01*
X150448796Y-110674505D01*
X150445196Y-110698773D01*
X150439235Y-110722572D01*
X150430970Y-110745671D01*
X150420480Y-110767850D01*
X150407868Y-110788893D01*
X150393253Y-110808599D01*
X150376777Y-110826777D01*
X150358599Y-110843253D01*
X150338893Y-110857868D01*
X150317850Y-110870480D01*
X150295671Y-110880970D01*
X150272572Y-110889235D01*
X150248773Y-110895196D01*
X150224505Y-110898796D01*
X150200001Y-110900000D01*
X149549999Y-110900000D01*
X149525495Y-110898796D01*
X149501227Y-110895196D01*
X149477428Y-110889235D01*
X149454329Y-110880970D01*
X149432150Y-110870480D01*
X149411107Y-110857868D01*
X149391401Y-110843253D01*
X149373223Y-110826777D01*
X149356747Y-110808599D01*
X149342132Y-110788893D01*
X149329520Y-110767850D01*
X149319030Y-110745671D01*
X149310765Y-110722572D01*
X149304804Y-110698773D01*
X149301204Y-110674505D01*
X149300000Y-110650001D01*
X149300000Y-109749999D01*
X149301204Y-109725495D01*
X149304804Y-109701227D01*
X149310765Y-109677428D01*
X149319030Y-109654329D01*
X149329520Y-109632150D01*
X149342132Y-109611107D01*
X149356747Y-109591401D01*
X149373223Y-109573223D01*
X149391401Y-109556747D01*
X149411107Y-109542132D01*
X149432150Y-109529520D01*
X149454329Y-109519030D01*
X149477428Y-109510765D01*
X149501227Y-109504804D01*
X149525495Y-109501204D01*
X149549999Y-109500000D01*
X150200001Y-109500000D01*
X150224505Y-109501204D01*
G37*
G04 #@! TD.AperFunction*
G04 #@! TA.AperFunction,SMDPad,CuDef*
G36*
X152274505Y-109501204D02*
G01*
X152298773Y-109504804D01*
X152322572Y-109510765D01*
X152345671Y-109519030D01*
X152367850Y-109529520D01*
X152388893Y-109542132D01*
X152408599Y-109556747D01*
X152426777Y-109573223D01*
X152443253Y-109591401D01*
X152457868Y-109611107D01*
X152470480Y-109632150D01*
X152480970Y-109654329D01*
X152489235Y-109677428D01*
X152495196Y-109701227D01*
X152498796Y-109725495D01*
X152500000Y-109749999D01*
X152500000Y-110650001D01*
X152498796Y-110674505D01*
X152495196Y-110698773D01*
X152489235Y-110722572D01*
X152480970Y-110745671D01*
X152470480Y-110767850D01*
X152457868Y-110788893D01*
X152443253Y-110808599D01*
X152426777Y-110826777D01*
X152408599Y-110843253D01*
X152388893Y-110857868D01*
X152367850Y-110870480D01*
X152345671Y-110880970D01*
X152322572Y-110889235D01*
X152298773Y-110895196D01*
X152274505Y-110898796D01*
X152250001Y-110900000D01*
X151599999Y-110900000D01*
X151575495Y-110898796D01*
X151551227Y-110895196D01*
X151527428Y-110889235D01*
X151504329Y-110880970D01*
X151482150Y-110870480D01*
X151461107Y-110857868D01*
X151441401Y-110843253D01*
X151423223Y-110826777D01*
X151406747Y-110808599D01*
X151392132Y-110788893D01*
X151379520Y-110767850D01*
X151369030Y-110745671D01*
X151360765Y-110722572D01*
X151354804Y-110698773D01*
X151351204Y-110674505D01*
X151350000Y-110650001D01*
X151350000Y-109749999D01*
X151351204Y-109725495D01*
X151354804Y-109701227D01*
X151360765Y-109677428D01*
X151369030Y-109654329D01*
X151379520Y-109632150D01*
X151392132Y-109611107D01*
X151406747Y-109591401D01*
X151423223Y-109573223D01*
X151441401Y-109556747D01*
X151461107Y-109542132D01*
X151482150Y-109529520D01*
X151504329Y-109519030D01*
X151527428Y-109510765D01*
X151551227Y-109504804D01*
X151575495Y-109501204D01*
X151599999Y-109500000D01*
X152250001Y-109500000D01*
X152274505Y-109501204D01*
G37*
G04 #@! TD.AperFunction*
G04 #@! TA.AperFunction,SMDPad,CuDef*
G36*
X156174505Y-105551204D02*
G01*
X156198773Y-105554804D01*
X156222572Y-105560765D01*
X156245671Y-105569030D01*
X156267850Y-105579520D01*
X156288893Y-105592132D01*
X156308599Y-105606747D01*
X156326777Y-105623223D01*
X156343253Y-105641401D01*
X156357868Y-105661107D01*
X156370480Y-105682150D01*
X156380970Y-105704329D01*
X156389235Y-105727428D01*
X156395196Y-105751227D01*
X156398796Y-105775495D01*
X156400000Y-105799999D01*
X156400000Y-106450001D01*
X156398796Y-106474505D01*
X156395196Y-106498773D01*
X156389235Y-106522572D01*
X156380970Y-106545671D01*
X156370480Y-106567850D01*
X156357868Y-106588893D01*
X156343253Y-106608599D01*
X156326777Y-106626777D01*
X156308599Y-106643253D01*
X156288893Y-106657868D01*
X156267850Y-106670480D01*
X156245671Y-106680970D01*
X156222572Y-106689235D01*
X156198773Y-106695196D01*
X156174505Y-106698796D01*
X156150001Y-106700000D01*
X155249999Y-106700000D01*
X155225495Y-106698796D01*
X155201227Y-106695196D01*
X155177428Y-106689235D01*
X155154329Y-106680970D01*
X155132150Y-106670480D01*
X155111107Y-106657868D01*
X155091401Y-106643253D01*
X155073223Y-106626777D01*
X155056747Y-106608599D01*
X155042132Y-106588893D01*
X155029520Y-106567850D01*
X155019030Y-106545671D01*
X155010765Y-106522572D01*
X155004804Y-106498773D01*
X155001204Y-106474505D01*
X155000000Y-106450001D01*
X155000000Y-105799999D01*
X155001204Y-105775495D01*
X155004804Y-105751227D01*
X155010765Y-105727428D01*
X155019030Y-105704329D01*
X155029520Y-105682150D01*
X155042132Y-105661107D01*
X155056747Y-105641401D01*
X155073223Y-105623223D01*
X155091401Y-105606747D01*
X155111107Y-105592132D01*
X155132150Y-105579520D01*
X155154329Y-105569030D01*
X155177428Y-105560765D01*
X155201227Y-105554804D01*
X155225495Y-105551204D01*
X155249999Y-105550000D01*
X156150001Y-105550000D01*
X156174505Y-105551204D01*
G37*
G04 #@! TD.AperFunction*
G04 #@! TA.AperFunction,SMDPad,CuDef*
G36*
X156174505Y-103501204D02*
G01*
X156198773Y-103504804D01*
X156222572Y-103510765D01*
X156245671Y-103519030D01*
X156267850Y-103529520D01*
X156288893Y-103542132D01*
X156308599Y-103556747D01*
X156326777Y-103573223D01*
X156343253Y-103591401D01*
X156357868Y-103611107D01*
X156370480Y-103632150D01*
X156380970Y-103654329D01*
X156389235Y-103677428D01*
X156395196Y-103701227D01*
X156398796Y-103725495D01*
X156400000Y-103749999D01*
X156400000Y-104400001D01*
X156398796Y-104424505D01*
X156395196Y-104448773D01*
X156389235Y-104472572D01*
X156380970Y-104495671D01*
X156370480Y-104517850D01*
X156357868Y-104538893D01*
X156343253Y-104558599D01*
X156326777Y-104576777D01*
X156308599Y-104593253D01*
X156288893Y-104607868D01*
X156267850Y-104620480D01*
X156245671Y-104630970D01*
X156222572Y-104639235D01*
X156198773Y-104645196D01*
X156174505Y-104648796D01*
X156150001Y-104650000D01*
X155249999Y-104650000D01*
X155225495Y-104648796D01*
X155201227Y-104645196D01*
X155177428Y-104639235D01*
X155154329Y-104630970D01*
X155132150Y-104620480D01*
X155111107Y-104607868D01*
X155091401Y-104593253D01*
X155073223Y-104576777D01*
X155056747Y-104558599D01*
X155042132Y-104538893D01*
X155029520Y-104517850D01*
X155019030Y-104495671D01*
X155010765Y-104472572D01*
X155004804Y-104448773D01*
X155001204Y-104424505D01*
X155000000Y-104400001D01*
X155000000Y-103749999D01*
X155001204Y-103725495D01*
X155004804Y-103701227D01*
X155010765Y-103677428D01*
X155019030Y-103654329D01*
X155029520Y-103632150D01*
X155042132Y-103611107D01*
X155056747Y-103591401D01*
X155073223Y-103573223D01*
X155091401Y-103556747D01*
X155111107Y-103542132D01*
X155132150Y-103529520D01*
X155154329Y-103519030D01*
X155177428Y-103510765D01*
X155201227Y-103504804D01*
X155225495Y-103501204D01*
X155249999Y-103500000D01*
X156150001Y-103500000D01*
X156174505Y-103501204D01*
G37*
G04 #@! TD.AperFunction*
G04 #@! TA.AperFunction,SMDPad,CuDef*
G36*
X153331705Y-103506404D02*
G01*
X153355973Y-103510004D01*
X153379772Y-103515965D01*
X153402871Y-103524230D01*
X153425050Y-103534720D01*
X153446093Y-103547332D01*
X153465799Y-103561947D01*
X153483977Y-103578423D01*
X153500453Y-103596601D01*
X153515068Y-103616307D01*
X153527680Y-103637350D01*
X153538170Y-103659529D01*
X153546435Y-103682628D01*
X153552396Y-103706427D01*
X153555996Y-103730695D01*
X153557200Y-103755199D01*
X153557200Y-104405201D01*
X153555996Y-104429705D01*
X153552396Y-104453973D01*
X153546435Y-104477772D01*
X153538170Y-104500871D01*
X153527680Y-104523050D01*
X153515068Y-104544093D01*
X153500453Y-104563799D01*
X153483977Y-104581977D01*
X153465799Y-104598453D01*
X153446093Y-104613068D01*
X153425050Y-104625680D01*
X153402871Y-104636170D01*
X153379772Y-104644435D01*
X153355973Y-104650396D01*
X153331705Y-104653996D01*
X153307201Y-104655200D01*
X152407199Y-104655200D01*
X152382695Y-104653996D01*
X152358427Y-104650396D01*
X152334628Y-104644435D01*
X152311529Y-104636170D01*
X152289350Y-104625680D01*
X152268307Y-104613068D01*
X152248601Y-104598453D01*
X152230423Y-104581977D01*
X152213947Y-104563799D01*
X152199332Y-104544093D01*
X152186720Y-104523050D01*
X152176230Y-104500871D01*
X152167965Y-104477772D01*
X152162004Y-104453973D01*
X152158404Y-104429705D01*
X152157200Y-104405201D01*
X152157200Y-103755199D01*
X152158404Y-103730695D01*
X152162004Y-103706427D01*
X152167965Y-103682628D01*
X152176230Y-103659529D01*
X152186720Y-103637350D01*
X152199332Y-103616307D01*
X152213947Y-103596601D01*
X152230423Y-103578423D01*
X152248601Y-103561947D01*
X152268307Y-103547332D01*
X152289350Y-103534720D01*
X152311529Y-103524230D01*
X152334628Y-103515965D01*
X152358427Y-103510004D01*
X152382695Y-103506404D01*
X152407199Y-103505200D01*
X153307201Y-103505200D01*
X153331705Y-103506404D01*
G37*
G04 #@! TD.AperFunction*
G04 #@! TA.AperFunction,SMDPad,CuDef*
G36*
X153331705Y-105556404D02*
G01*
X153355973Y-105560004D01*
X153379772Y-105565965D01*
X153402871Y-105574230D01*
X153425050Y-105584720D01*
X153446093Y-105597332D01*
X153465799Y-105611947D01*
X153483977Y-105628423D01*
X153500453Y-105646601D01*
X153515068Y-105666307D01*
X153527680Y-105687350D01*
X153538170Y-105709529D01*
X153546435Y-105732628D01*
X153552396Y-105756427D01*
X153555996Y-105780695D01*
X153557200Y-105805199D01*
X153557200Y-106455201D01*
X153555996Y-106479705D01*
X153552396Y-106503973D01*
X153546435Y-106527772D01*
X153538170Y-106550871D01*
X153527680Y-106573050D01*
X153515068Y-106594093D01*
X153500453Y-106613799D01*
X153483977Y-106631977D01*
X153465799Y-106648453D01*
X153446093Y-106663068D01*
X153425050Y-106675680D01*
X153402871Y-106686170D01*
X153379772Y-106694435D01*
X153355973Y-106700396D01*
X153331705Y-106703996D01*
X153307201Y-106705200D01*
X152407199Y-106705200D01*
X152382695Y-106703996D01*
X152358427Y-106700396D01*
X152334628Y-106694435D01*
X152311529Y-106686170D01*
X152289350Y-106675680D01*
X152268307Y-106663068D01*
X152248601Y-106648453D01*
X152230423Y-106631977D01*
X152213947Y-106613799D01*
X152199332Y-106594093D01*
X152186720Y-106573050D01*
X152176230Y-106550871D01*
X152167965Y-106527772D01*
X152162004Y-106503973D01*
X152158404Y-106479705D01*
X152157200Y-106455201D01*
X152157200Y-105805199D01*
X152158404Y-105780695D01*
X152162004Y-105756427D01*
X152167965Y-105732628D01*
X152176230Y-105709529D01*
X152186720Y-105687350D01*
X152199332Y-105666307D01*
X152213947Y-105646601D01*
X152230423Y-105628423D01*
X152248601Y-105611947D01*
X152268307Y-105597332D01*
X152289350Y-105584720D01*
X152311529Y-105574230D01*
X152334628Y-105565965D01*
X152358427Y-105560004D01*
X152382695Y-105556404D01*
X152407199Y-105555200D01*
X153307201Y-105555200D01*
X153331705Y-105556404D01*
G37*
G04 #@! TD.AperFunction*
D13*
X160000000Y-110000000D03*
D14*
X160000000Y-107460000D03*
X160000000Y-104920000D03*
X160000000Y-102380000D03*
X160000000Y-99840000D03*
G04 #@! TA.AperFunction,SMDPad,CuDef*
D12*
G36*
X147538704Y-97990204D02*
G01*
X147562973Y-97993804D01*
X147586771Y-97999765D01*
X147609871Y-98008030D01*
X147632049Y-98018520D01*
X147653093Y-98031133D01*
X147672798Y-98045747D01*
X147690977Y-98062223D01*
X147707453Y-98080402D01*
X147722067Y-98100107D01*
X147734680Y-98121151D01*
X147745170Y-98143329D01*
X147753435Y-98166429D01*
X147759396Y-98190227D01*
X147762996Y-98214496D01*
X147764200Y-98239000D01*
X147764200Y-100389000D01*
X147762996Y-100413504D01*
X147759396Y-100437773D01*
X147753435Y-100461571D01*
X147745170Y-100484671D01*
X147734680Y-100506849D01*
X147722067Y-100527893D01*
X147707453Y-100547598D01*
X147690977Y-100565777D01*
X147672798Y-100582253D01*
X147653093Y-100596867D01*
X147632049Y-100609480D01*
X147609871Y-100619970D01*
X147586771Y-100628235D01*
X147562973Y-100634196D01*
X147538704Y-100637796D01*
X147514200Y-100639000D01*
X146589200Y-100639000D01*
X146564696Y-100637796D01*
X146540427Y-100634196D01*
X146516629Y-100628235D01*
X146493529Y-100619970D01*
X146471351Y-100609480D01*
X146450307Y-100596867D01*
X146430602Y-100582253D01*
X146412423Y-100565777D01*
X146395947Y-100547598D01*
X146381333Y-100527893D01*
X146368720Y-100506849D01*
X146358230Y-100484671D01*
X146349965Y-100461571D01*
X146344004Y-100437773D01*
X146340404Y-100413504D01*
X146339200Y-100389000D01*
X146339200Y-98239000D01*
X146340404Y-98214496D01*
X146344004Y-98190227D01*
X146349965Y-98166429D01*
X146358230Y-98143329D01*
X146368720Y-98121151D01*
X146381333Y-98100107D01*
X146395947Y-98080402D01*
X146412423Y-98062223D01*
X146430602Y-98045747D01*
X146450307Y-98031133D01*
X146471351Y-98018520D01*
X146493529Y-98008030D01*
X146516629Y-97999765D01*
X146540427Y-97993804D01*
X146564696Y-97990204D01*
X146589200Y-97989000D01*
X147514200Y-97989000D01*
X147538704Y-97990204D01*
G37*
G04 #@! TD.AperFunction*
G04 #@! TA.AperFunction,SMDPad,CuDef*
G36*
X150513704Y-97990204D02*
G01*
X150537973Y-97993804D01*
X150561771Y-97999765D01*
X150584871Y-98008030D01*
X150607049Y-98018520D01*
X150628093Y-98031133D01*
X150647798Y-98045747D01*
X150665977Y-98062223D01*
X150682453Y-98080402D01*
X150697067Y-98100107D01*
X150709680Y-98121151D01*
X150720170Y-98143329D01*
X150728435Y-98166429D01*
X150734396Y-98190227D01*
X150737996Y-98214496D01*
X150739200Y-98239000D01*
X150739200Y-100389000D01*
X150737996Y-100413504D01*
X150734396Y-100437773D01*
X150728435Y-100461571D01*
X150720170Y-100484671D01*
X150709680Y-100506849D01*
X150697067Y-100527893D01*
X150682453Y-100547598D01*
X150665977Y-100565777D01*
X150647798Y-100582253D01*
X150628093Y-100596867D01*
X150607049Y-100609480D01*
X150584871Y-100619970D01*
X150561771Y-100628235D01*
X150537973Y-100634196D01*
X150513704Y-100637796D01*
X150489200Y-100639000D01*
X149564200Y-100639000D01*
X149539696Y-100637796D01*
X149515427Y-100634196D01*
X149491629Y-100628235D01*
X149468529Y-100619970D01*
X149446351Y-100609480D01*
X149425307Y-100596867D01*
X149405602Y-100582253D01*
X149387423Y-100565777D01*
X149370947Y-100547598D01*
X149356333Y-100527893D01*
X149343720Y-100506849D01*
X149333230Y-100484671D01*
X149324965Y-100461571D01*
X149319004Y-100437773D01*
X149315404Y-100413504D01*
X149314200Y-100389000D01*
X149314200Y-98239000D01*
X149315404Y-98214496D01*
X149319004Y-98190227D01*
X149324965Y-98166429D01*
X149333230Y-98143329D01*
X149343720Y-98121151D01*
X149356333Y-98100107D01*
X149370947Y-98080402D01*
X149387423Y-98062223D01*
X149405602Y-98045747D01*
X149425307Y-98031133D01*
X149446351Y-98018520D01*
X149468529Y-98008030D01*
X149491629Y-97999765D01*
X149515427Y-97993804D01*
X149539696Y-97990204D01*
X149564200Y-97989000D01*
X150489200Y-97989000D01*
X150513704Y-97990204D01*
G37*
G04 #@! TD.AperFunction*
G04 #@! TA.AperFunction,SMDPad,CuDef*
G36*
X145424505Y-109501204D02*
G01*
X145448773Y-109504804D01*
X145472572Y-109510765D01*
X145495671Y-109519030D01*
X145517850Y-109529520D01*
X145538893Y-109542132D01*
X145558599Y-109556747D01*
X145576777Y-109573223D01*
X145593253Y-109591401D01*
X145607868Y-109611107D01*
X145620480Y-109632150D01*
X145630970Y-109654329D01*
X145639235Y-109677428D01*
X145645196Y-109701227D01*
X145648796Y-109725495D01*
X145650000Y-109749999D01*
X145650000Y-110650001D01*
X145648796Y-110674505D01*
X145645196Y-110698773D01*
X145639235Y-110722572D01*
X145630970Y-110745671D01*
X145620480Y-110767850D01*
X145607868Y-110788893D01*
X145593253Y-110808599D01*
X145576777Y-110826777D01*
X145558599Y-110843253D01*
X145538893Y-110857868D01*
X145517850Y-110870480D01*
X145495671Y-110880970D01*
X145472572Y-110889235D01*
X145448773Y-110895196D01*
X145424505Y-110898796D01*
X145400001Y-110900000D01*
X144749999Y-110900000D01*
X144725495Y-110898796D01*
X144701227Y-110895196D01*
X144677428Y-110889235D01*
X144654329Y-110880970D01*
X144632150Y-110870480D01*
X144611107Y-110857868D01*
X144591401Y-110843253D01*
X144573223Y-110826777D01*
X144556747Y-110808599D01*
X144542132Y-110788893D01*
X144529520Y-110767850D01*
X144519030Y-110745671D01*
X144510765Y-110722572D01*
X144504804Y-110698773D01*
X144501204Y-110674505D01*
X144500000Y-110650001D01*
X144500000Y-109749999D01*
X144501204Y-109725495D01*
X144504804Y-109701227D01*
X144510765Y-109677428D01*
X144519030Y-109654329D01*
X144529520Y-109632150D01*
X144542132Y-109611107D01*
X144556747Y-109591401D01*
X144573223Y-109573223D01*
X144591401Y-109556747D01*
X144611107Y-109542132D01*
X144632150Y-109529520D01*
X144654329Y-109519030D01*
X144677428Y-109510765D01*
X144701227Y-109504804D01*
X144725495Y-109501204D01*
X144749999Y-109500000D01*
X145400001Y-109500000D01*
X145424505Y-109501204D01*
G37*
G04 #@! TD.AperFunction*
G04 #@! TA.AperFunction,SMDPad,CuDef*
G36*
X147474505Y-109501204D02*
G01*
X147498773Y-109504804D01*
X147522572Y-109510765D01*
X147545671Y-109519030D01*
X147567850Y-109529520D01*
X147588893Y-109542132D01*
X147608599Y-109556747D01*
X147626777Y-109573223D01*
X147643253Y-109591401D01*
X147657868Y-109611107D01*
X147670480Y-109632150D01*
X147680970Y-109654329D01*
X147689235Y-109677428D01*
X147695196Y-109701227D01*
X147698796Y-109725495D01*
X147700000Y-109749999D01*
X147700000Y-110650001D01*
X147698796Y-110674505D01*
X147695196Y-110698773D01*
X147689235Y-110722572D01*
X147680970Y-110745671D01*
X147670480Y-110767850D01*
X147657868Y-110788893D01*
X147643253Y-110808599D01*
X147626777Y-110826777D01*
X147608599Y-110843253D01*
X147588893Y-110857868D01*
X147567850Y-110870480D01*
X147545671Y-110880970D01*
X147522572Y-110889235D01*
X147498773Y-110895196D01*
X147474505Y-110898796D01*
X147450001Y-110900000D01*
X146799999Y-110900000D01*
X146775495Y-110898796D01*
X146751227Y-110895196D01*
X146727428Y-110889235D01*
X146704329Y-110880970D01*
X146682150Y-110870480D01*
X146661107Y-110857868D01*
X146641401Y-110843253D01*
X146623223Y-110826777D01*
X146606747Y-110808599D01*
X146592132Y-110788893D01*
X146579520Y-110767850D01*
X146569030Y-110745671D01*
X146560765Y-110722572D01*
X146554804Y-110698773D01*
X146551204Y-110674505D01*
X146550000Y-110650001D01*
X146550000Y-109749999D01*
X146551204Y-109725495D01*
X146554804Y-109701227D01*
X146560765Y-109677428D01*
X146569030Y-109654329D01*
X146579520Y-109632150D01*
X146592132Y-109611107D01*
X146606747Y-109591401D01*
X146623223Y-109573223D01*
X146641401Y-109556747D01*
X146661107Y-109542132D01*
X146682150Y-109529520D01*
X146704329Y-109519030D01*
X146727428Y-109510765D01*
X146751227Y-109504804D01*
X146775495Y-109501204D01*
X146799999Y-109500000D01*
X147450001Y-109500000D01*
X147474505Y-109501204D01*
G37*
G04 #@! TD.AperFunction*
D15*
X144600000Y-102500000D03*
X146253200Y-107670600D03*
X147548600Y-107696000D03*
D16*
X144627600Y-103855200D02*
X144317400Y-103855200D01*
X144627600Y-103855200D02*
X145405000Y-103855200D01*
X145405000Y-103855200D02*
X145756600Y-103503600D01*
X145756600Y-103503600D02*
X147495099Y-103503600D01*
D17*
X148501100Y-105321100D02*
X149001100Y-105821100D01*
X149001100Y-105821100D02*
X149001100Y-106503600D01*
D18*
X148501100Y-105003600D02*
X148501100Y-105321100D01*
D17*
X148501100Y-103503600D02*
X148501100Y-105003600D01*
D16*
X145468000Y-110134400D02*
X145368000Y-110134400D01*
D17*
X148501100Y-107056000D02*
X148501100Y-107810300D01*
D19*
X148501100Y-106503600D02*
X148501100Y-107056000D01*
D16*
X145108600Y-110200000D02*
X145043000Y-110134400D01*
X144600000Y-104052600D02*
X144627600Y-104080200D01*
X144600000Y-102500000D02*
X144600000Y-104052600D01*
X144500000Y-110200000D02*
X143200000Y-108900000D01*
X145075000Y-110200000D02*
X144500000Y-110200000D01*
X143200000Y-108900000D02*
X143200000Y-104500000D01*
X143619800Y-104080200D02*
X144627600Y-104080200D01*
X143200000Y-104500000D02*
X143619800Y-104080200D01*
X148501100Y-107810300D02*
X148501100Y-109601100D01*
X148501100Y-109601100D02*
X149000000Y-110100000D01*
X149000000Y-110100000D02*
X149875000Y-110200000D01*
X147125000Y-110200000D02*
X149000000Y-110100000D01*
X149930900Y-106503600D02*
X150500000Y-105934500D01*
X149501100Y-106503600D02*
X149930900Y-106503600D01*
X150500000Y-105934500D02*
X150500000Y-103700000D01*
X150303600Y-103503600D02*
X149501100Y-103503600D01*
X150500000Y-103700000D02*
X150303600Y-103503600D01*
X150303600Y-103503600D02*
X151303600Y-103503600D01*
X151880200Y-104080200D02*
X152857200Y-104080200D01*
X151303600Y-103503600D02*
X151880200Y-104080200D01*
X155694800Y-104080200D02*
X155700000Y-104075000D01*
X152857200Y-104080200D02*
X155694800Y-104080200D01*
X160000000Y-99840000D02*
X158560000Y-99840000D01*
X155700000Y-102700000D02*
X155700000Y-104075000D01*
X158560000Y-99840000D02*
X155700000Y-102700000D01*
X146253200Y-107321700D02*
X146253200Y-107670600D01*
X147501100Y-106503600D02*
X147071300Y-106503600D01*
X147071300Y-106503600D02*
X146253200Y-107321700D01*
D19*
X148001100Y-106503600D02*
X148001100Y-107243500D01*
X148001100Y-107243500D02*
X147548600Y-107696000D01*
D17*
X148001100Y-103503600D02*
X148001100Y-102951200D01*
D18*
X148001100Y-102951200D02*
X148005800Y-102946500D01*
D17*
X148005800Y-102946500D02*
X148005800Y-102136200D01*
D20*
X146789200Y-99314000D02*
X146789200Y-100919600D01*
X146789200Y-100919600D02*
X148005800Y-102136200D01*
D17*
X149001100Y-103503600D02*
X149001100Y-102204900D01*
D20*
X150289200Y-100916800D02*
X150289200Y-99314000D01*
X149001100Y-102204900D02*
X150289200Y-100916800D01*
D17*
G36*
X161544000Y-114044000D02*
G01*
X142456000Y-114044000D01*
X142456000Y-104500000D01*
X142664021Y-104500000D01*
X142666601Y-104526197D01*
X142666600Y-108873813D01*
X142664021Y-108900000D01*
X142666600Y-108926187D01*
X142666600Y-108926194D01*
X142674319Y-109004564D01*
X142704819Y-109105110D01*
X142754349Y-109197775D01*
X142821005Y-109278995D01*
X142841355Y-109295696D01*
X144104304Y-110558645D01*
X144117157Y-110574306D01*
X144117157Y-110650001D01*
X144129317Y-110773462D01*
X144165329Y-110892179D01*
X144223810Y-111001589D01*
X144302512Y-111097488D01*
X144398411Y-111176190D01*
X144507821Y-111234671D01*
X144626538Y-111270683D01*
X144749999Y-111282843D01*
X145400001Y-111282843D01*
X145523462Y-111270683D01*
X145642179Y-111234671D01*
X145751589Y-111176190D01*
X145847488Y-111097488D01*
X145926190Y-111001589D01*
X145984671Y-110892179D01*
X146020683Y-110773462D01*
X146032843Y-110650001D01*
X146032843Y-109749999D01*
X146020683Y-109626538D01*
X145984671Y-109507821D01*
X145926190Y-109398411D01*
X145847488Y-109302512D01*
X145751589Y-109223810D01*
X145642179Y-109165329D01*
X145523462Y-109129317D01*
X145400001Y-109117157D01*
X144749999Y-109117157D01*
X144626538Y-109129317D01*
X144507821Y-109165329D01*
X144398411Y-109223810D01*
X144332359Y-109278018D01*
X143733400Y-108679059D01*
X143733400Y-107309863D01*
X143803118Y-107331012D01*
X143927600Y-107343272D01*
X144341850Y-107340200D01*
X144500600Y-107181450D01*
X144500600Y-106257200D01*
X144480600Y-106257200D01*
X144480600Y-106003200D01*
X144500600Y-106003200D01*
X144500600Y-105983200D01*
X144754600Y-105983200D01*
X144754600Y-106003200D01*
X145803850Y-106003200D01*
X145962600Y-105844450D01*
X145965672Y-105555200D01*
X145953412Y-105430718D01*
X145917102Y-105311020D01*
X145858137Y-105200706D01*
X145778785Y-105104015D01*
X145682094Y-105024663D01*
X145571780Y-104965698D01*
X145452082Y-104929388D01*
X145433820Y-104927589D01*
X145525088Y-104852688D01*
X145603790Y-104756789D01*
X145662271Y-104647379D01*
X145698283Y-104528662D01*
X145710443Y-104405201D01*
X145710443Y-104294558D01*
X145783995Y-104234195D01*
X145800696Y-104213845D01*
X145977541Y-104037000D01*
X146810815Y-104037000D01*
X146775288Y-104154118D01*
X146763028Y-104278600D01*
X146766100Y-104717850D01*
X146924850Y-104876600D01*
X148374100Y-104876600D01*
X148374100Y-104856600D01*
X148628100Y-104856600D01*
X148628100Y-104876600D01*
X148648100Y-104876600D01*
X148648100Y-105130600D01*
X148628100Y-105130600D01*
X148628100Y-105150600D01*
X148374100Y-105150600D01*
X148374100Y-105130600D01*
X146924850Y-105130600D01*
X146766100Y-105289350D01*
X146763028Y-105728600D01*
X146775288Y-105853082D01*
X146811598Y-105972780D01*
X146838546Y-106023195D01*
X146773525Y-106057949D01*
X146720181Y-106101728D01*
X146692305Y-106124605D01*
X146675609Y-106144949D01*
X145937098Y-106883460D01*
X145953412Y-106829682D01*
X145965672Y-106705200D01*
X145962600Y-106415950D01*
X145803850Y-106257200D01*
X144754600Y-106257200D01*
X144754600Y-107181450D01*
X144913350Y-107340200D01*
X145327600Y-107343272D01*
X145452082Y-107331012D01*
X145571780Y-107294702D01*
X145668163Y-107243183D01*
X145611688Y-107327705D01*
X145557119Y-107459446D01*
X145529300Y-107599302D01*
X145529300Y-107741898D01*
X145557119Y-107881754D01*
X145611688Y-108013495D01*
X145690910Y-108132060D01*
X145791740Y-108232890D01*
X145910305Y-108312112D01*
X146042046Y-108366681D01*
X146181902Y-108394500D01*
X146324498Y-108394500D01*
X146464354Y-108366681D01*
X146596095Y-108312112D01*
X146714660Y-108232890D01*
X146815490Y-108132060D01*
X146894712Y-108013495D01*
X146895639Y-108011256D01*
X146907088Y-108038895D01*
X146986310Y-108157460D01*
X147087140Y-108258290D01*
X147205705Y-108337512D01*
X147337446Y-108392081D01*
X147477302Y-108419900D01*
X147619898Y-108419900D01*
X147759754Y-108392081D01*
X147891495Y-108337512D01*
X147967700Y-108286594D01*
X147967701Y-109388067D01*
X147897488Y-109302512D01*
X147801589Y-109223810D01*
X147692179Y-109165329D01*
X147573462Y-109129317D01*
X147450001Y-109117157D01*
X146799999Y-109117157D01*
X146676538Y-109129317D01*
X146557821Y-109165329D01*
X146448411Y-109223810D01*
X146352512Y-109302512D01*
X146273810Y-109398411D01*
X146215329Y-109507821D01*
X146179317Y-109626538D01*
X146167157Y-109749999D01*
X146167157Y-110650001D01*
X146179317Y-110773462D01*
X146215329Y-110892179D01*
X146273810Y-111001589D01*
X146352512Y-111097488D01*
X146448411Y-111176190D01*
X146557821Y-111234671D01*
X146676538Y-111270683D01*
X146799999Y-111282843D01*
X147450001Y-111282843D01*
X147573462Y-111270683D01*
X147692179Y-111234671D01*
X147801589Y-111176190D01*
X147897488Y-111097488D01*
X147976190Y-111001589D01*
X148034671Y-110892179D01*
X148070683Y-110773462D01*
X148079568Y-110683247D01*
X148917157Y-110638575D01*
X148917157Y-110650001D01*
X148929317Y-110773462D01*
X148965329Y-110892179D01*
X149023810Y-111001589D01*
X149102512Y-111097488D01*
X149198411Y-111176190D01*
X149307821Y-111234671D01*
X149426538Y-111270683D01*
X149549999Y-111282843D01*
X150200001Y-111282843D01*
X150323462Y-111270683D01*
X150442179Y-111234671D01*
X150551589Y-111176190D01*
X150647488Y-111097488D01*
X150722389Y-111006220D01*
X150724188Y-111024482D01*
X150760498Y-111144180D01*
X150819463Y-111254494D01*
X150898815Y-111351185D01*
X150995506Y-111430537D01*
X151105820Y-111489502D01*
X151225518Y-111525812D01*
X151350000Y-111538072D01*
X151639250Y-111535000D01*
X151798000Y-111376250D01*
X151798000Y-110327000D01*
X152052000Y-110327000D01*
X152052000Y-111376250D01*
X152210750Y-111535000D01*
X152500000Y-111538072D01*
X152624482Y-111525812D01*
X152744180Y-111489502D01*
X152854494Y-111430537D01*
X152951185Y-111351185D01*
X153030537Y-111254494D01*
X153089502Y-111144180D01*
X153125812Y-111024482D01*
X153138072Y-110900000D01*
X153137702Y-110850000D01*
X158511928Y-110850000D01*
X158524188Y-110974482D01*
X158560498Y-111094180D01*
X158619463Y-111204494D01*
X158698815Y-111301185D01*
X158795506Y-111380537D01*
X158905820Y-111439502D01*
X159025518Y-111475812D01*
X159150000Y-111488072D01*
X159714250Y-111485000D01*
X159873000Y-111326250D01*
X159873000Y-110127000D01*
X160127000Y-110127000D01*
X160127000Y-111326250D01*
X160285750Y-111485000D01*
X160850000Y-111488072D01*
X160974482Y-111475812D01*
X161094180Y-111439502D01*
X161204494Y-111380537D01*
X161301185Y-111301185D01*
X161380537Y-111204494D01*
X161439502Y-111094180D01*
X161475812Y-110974482D01*
X161488072Y-110850000D01*
X161485000Y-110285750D01*
X161326250Y-110127000D01*
X160127000Y-110127000D01*
X159873000Y-110127000D01*
X158673750Y-110127000D01*
X158515000Y-110285750D01*
X158511928Y-110850000D01*
X153137702Y-110850000D01*
X153135000Y-110485750D01*
X152976250Y-110327000D01*
X152052000Y-110327000D01*
X151798000Y-110327000D01*
X151778000Y-110327000D01*
X151778000Y-110073000D01*
X151798000Y-110073000D01*
X151798000Y-109023750D01*
X152052000Y-109023750D01*
X152052000Y-110073000D01*
X152976250Y-110073000D01*
X153135000Y-109914250D01*
X153138072Y-109500000D01*
X153125812Y-109375518D01*
X153089502Y-109255820D01*
X153032940Y-109150000D01*
X158511928Y-109150000D01*
X158515000Y-109714250D01*
X158673750Y-109873000D01*
X159873000Y-109873000D01*
X159873000Y-109853000D01*
X160127000Y-109853000D01*
X160127000Y-109873000D01*
X161326250Y-109873000D01*
X161485000Y-109714250D01*
X161488072Y-109150000D01*
X161475812Y-109025518D01*
X161439502Y-108905820D01*
X161380537Y-108795506D01*
X161301185Y-108698815D01*
X161204494Y-108619463D01*
X161094180Y-108560498D01*
X160974482Y-108524188D01*
X160850000Y-108511928D01*
X160639706Y-108513073D01*
X160784717Y-108416180D01*
X160956180Y-108244717D01*
X161090898Y-108043097D01*
X161183693Y-107819069D01*
X161231000Y-107581243D01*
X161231000Y-107338757D01*
X161183693Y-107100931D01*
X161090898Y-106876903D01*
X160956180Y-106675283D01*
X160784717Y-106503820D01*
X160583097Y-106369102D01*
X160359069Y-106276307D01*
X160121243Y-106229000D01*
X159878757Y-106229000D01*
X159640931Y-106276307D01*
X159416903Y-106369102D01*
X159215283Y-106503820D01*
X159043820Y-106675283D01*
X158909102Y-106876903D01*
X158816307Y-107100931D01*
X158769000Y-107338757D01*
X158769000Y-107581243D01*
X158816307Y-107819069D01*
X158909102Y-108043097D01*
X159043820Y-108244717D01*
X159215283Y-108416180D01*
X159360294Y-108513073D01*
X159150000Y-108511928D01*
X159025518Y-108524188D01*
X158905820Y-108560498D01*
X158795506Y-108619463D01*
X158698815Y-108698815D01*
X158619463Y-108795506D01*
X158560498Y-108905820D01*
X158524188Y-109025518D01*
X158511928Y-109150000D01*
X153032940Y-109150000D01*
X153030537Y-109145506D01*
X152951185Y-109048815D01*
X152854494Y-108969463D01*
X152744180Y-108910498D01*
X152624482Y-108874188D01*
X152500000Y-108861928D01*
X152210750Y-108865000D01*
X152052000Y-109023750D01*
X151798000Y-109023750D01*
X151639250Y-108865000D01*
X151350000Y-108861928D01*
X151225518Y-108874188D01*
X151105820Y-108910498D01*
X150995506Y-108969463D01*
X150898815Y-109048815D01*
X150819463Y-109145506D01*
X150760498Y-109255820D01*
X150724188Y-109375518D01*
X150722389Y-109393780D01*
X150647488Y-109302512D01*
X150551589Y-109223810D01*
X150442179Y-109165329D01*
X150323462Y-109129317D01*
X150200001Y-109117157D01*
X149549999Y-109117157D01*
X149426538Y-109129317D01*
X149307821Y-109165329D01*
X149198411Y-109223810D01*
X149102512Y-109302512D01*
X149036856Y-109382515D01*
X149034500Y-109380159D01*
X149034500Y-107784105D01*
X149026781Y-107705735D01*
X149009100Y-107647448D01*
X149009100Y-107538600D01*
X149128102Y-107538600D01*
X149128102Y-107506852D01*
X149159850Y-107538600D01*
X149265262Y-107526312D01*
X149384073Y-107487197D01*
X149492970Y-107425656D01*
X149587769Y-107344052D01*
X149633384Y-107285726D01*
X149700789Y-107279087D01*
X149772608Y-107257301D01*
X149838796Y-107221922D01*
X149896811Y-107174311D01*
X149944422Y-107116296D01*
X149979801Y-107050108D01*
X149984599Y-107034291D01*
X150035465Y-107029281D01*
X150136011Y-106998781D01*
X150228675Y-106949251D01*
X150309895Y-106882595D01*
X150326595Y-106862246D01*
X150483641Y-106705200D01*
X151519128Y-106705200D01*
X151531388Y-106829682D01*
X151567698Y-106949380D01*
X151626663Y-107059694D01*
X151706015Y-107156385D01*
X151802706Y-107235737D01*
X151913020Y-107294702D01*
X152032718Y-107331012D01*
X152157200Y-107343272D01*
X152571450Y-107340200D01*
X152730200Y-107181450D01*
X152730200Y-106257200D01*
X152984200Y-106257200D01*
X152984200Y-107181450D01*
X153142950Y-107340200D01*
X153557200Y-107343272D01*
X153681682Y-107331012D01*
X153801380Y-107294702D01*
X153911694Y-107235737D01*
X154008385Y-107156385D01*
X154087737Y-107059694D01*
X154146702Y-106949380D01*
X154183012Y-106829682D01*
X154195272Y-106705200D01*
X154195217Y-106700000D01*
X154361928Y-106700000D01*
X154374188Y-106824482D01*
X154410498Y-106944180D01*
X154469463Y-107054494D01*
X154548815Y-107151185D01*
X154645506Y-107230537D01*
X154755820Y-107289502D01*
X154875518Y-107325812D01*
X155000000Y-107338072D01*
X155414250Y-107335000D01*
X155573000Y-107176250D01*
X155573000Y-106252000D01*
X155827000Y-106252000D01*
X155827000Y-107176250D01*
X155985750Y-107335000D01*
X156400000Y-107338072D01*
X156524482Y-107325812D01*
X156644180Y-107289502D01*
X156754494Y-107230537D01*
X156851185Y-107151185D01*
X156930537Y-107054494D01*
X156989502Y-106944180D01*
X157025812Y-106824482D01*
X157038072Y-106700000D01*
X157035000Y-106410750D01*
X156876250Y-106252000D01*
X155827000Y-106252000D01*
X155573000Y-106252000D01*
X154523750Y-106252000D01*
X154365000Y-106410750D01*
X154361928Y-106700000D01*
X154195217Y-106700000D01*
X154192200Y-106415950D01*
X154033450Y-106257200D01*
X152984200Y-106257200D01*
X152730200Y-106257200D01*
X151680950Y-106257200D01*
X151522200Y-106415950D01*
X151519128Y-106705200D01*
X150483641Y-106705200D01*
X150858651Y-106330191D01*
X150878995Y-106313495D01*
X150945651Y-106232275D01*
X150995181Y-106139611D01*
X151025681Y-106039065D01*
X151033400Y-105960695D01*
X151033400Y-105960687D01*
X151035979Y-105934500D01*
X151033400Y-105908313D01*
X151033400Y-104037000D01*
X151082659Y-104037000D01*
X151484504Y-104438845D01*
X151501205Y-104459195D01*
X151582425Y-104525851D01*
X151675089Y-104575381D01*
X151775635Y-104605881D01*
X151810997Y-104609364D01*
X151822529Y-104647379D01*
X151881010Y-104756789D01*
X151959712Y-104852688D01*
X152050980Y-104927589D01*
X152032718Y-104929388D01*
X151913020Y-104965698D01*
X151802706Y-105024663D01*
X151706015Y-105104015D01*
X151626663Y-105200706D01*
X151567698Y-105311020D01*
X151531388Y-105430718D01*
X151519128Y-105555200D01*
X151522200Y-105844450D01*
X151680950Y-106003200D01*
X152730200Y-106003200D01*
X152730200Y-105983200D01*
X152984200Y-105983200D01*
X152984200Y-106003200D01*
X154033450Y-106003200D01*
X154192200Y-105844450D01*
X154195272Y-105555200D01*
X154183012Y-105430718D01*
X154146702Y-105311020D01*
X154087737Y-105200706D01*
X154008385Y-105104015D01*
X153911694Y-105024663D01*
X153801380Y-104965698D01*
X153681682Y-104929388D01*
X153663420Y-104927589D01*
X153754688Y-104852688D01*
X153833390Y-104756789D01*
X153891871Y-104647379D01*
X153902118Y-104613600D01*
X154656660Y-104613600D01*
X154665329Y-104642179D01*
X154723810Y-104751589D01*
X154802512Y-104847488D01*
X154893780Y-104922389D01*
X154875518Y-104924188D01*
X154755820Y-104960498D01*
X154645506Y-105019463D01*
X154548815Y-105098815D01*
X154469463Y-105195506D01*
X154410498Y-105305820D01*
X154374188Y-105425518D01*
X154361928Y-105550000D01*
X154365000Y-105839250D01*
X154523750Y-105998000D01*
X155573000Y-105998000D01*
X155573000Y-105978000D01*
X155827000Y-105978000D01*
X155827000Y-105998000D01*
X156876250Y-105998000D01*
X157035000Y-105839250D01*
X157038072Y-105550000D01*
X157025812Y-105425518D01*
X156989502Y-105305820D01*
X156930537Y-105195506D01*
X156851185Y-105098815D01*
X156754494Y-105019463D01*
X156644180Y-104960498D01*
X156524482Y-104924188D01*
X156506220Y-104922389D01*
X156597488Y-104847488D01*
X156637480Y-104798757D01*
X158769000Y-104798757D01*
X158769000Y-105041243D01*
X158816307Y-105279069D01*
X158909102Y-105503097D01*
X159043820Y-105704717D01*
X159215283Y-105876180D01*
X159416903Y-106010898D01*
X159640931Y-106103693D01*
X159878757Y-106151000D01*
X160121243Y-106151000D01*
X160359069Y-106103693D01*
X160583097Y-106010898D01*
X160784717Y-105876180D01*
X160956180Y-105704717D01*
X161090898Y-105503097D01*
X161183693Y-105279069D01*
X161231000Y-105041243D01*
X161231000Y-104798757D01*
X161183693Y-104560931D01*
X161090898Y-104336903D01*
X160956180Y-104135283D01*
X160784717Y-103963820D01*
X160583097Y-103829102D01*
X160359069Y-103736307D01*
X160121243Y-103689000D01*
X159878757Y-103689000D01*
X159640931Y-103736307D01*
X159416903Y-103829102D01*
X159215283Y-103963820D01*
X159043820Y-104135283D01*
X158909102Y-104336903D01*
X158816307Y-104560931D01*
X158769000Y-104798757D01*
X156637480Y-104798757D01*
X156676190Y-104751589D01*
X156734671Y-104642179D01*
X156770683Y-104523462D01*
X156782843Y-104400001D01*
X156782843Y-103749999D01*
X156770683Y-103626538D01*
X156734671Y-103507821D01*
X156676190Y-103398411D01*
X156597488Y-103302512D01*
X156501589Y-103223810D01*
X156392179Y-103165329D01*
X156273462Y-103129317D01*
X156233400Y-103125371D01*
X156233400Y-102920941D01*
X156895584Y-102258757D01*
X158769000Y-102258757D01*
X158769000Y-102501243D01*
X158816307Y-102739069D01*
X158909102Y-102963097D01*
X159043820Y-103164717D01*
X159215283Y-103336180D01*
X159416903Y-103470898D01*
X159640931Y-103563693D01*
X159878757Y-103611000D01*
X160121243Y-103611000D01*
X160359069Y-103563693D01*
X160583097Y-103470898D01*
X160784717Y-103336180D01*
X160956180Y-103164717D01*
X161090898Y-102963097D01*
X161183693Y-102739069D01*
X161231000Y-102501243D01*
X161231000Y-102258757D01*
X161183693Y-102020931D01*
X161090898Y-101796903D01*
X160956180Y-101595283D01*
X160784717Y-101423820D01*
X160583097Y-101289102D01*
X160359069Y-101196307D01*
X160121243Y-101149000D01*
X159878757Y-101149000D01*
X159640931Y-101196307D01*
X159416903Y-101289102D01*
X159215283Y-101423820D01*
X159043820Y-101595283D01*
X158909102Y-101796903D01*
X158816307Y-102020931D01*
X158769000Y-102258757D01*
X156895584Y-102258757D01*
X158780941Y-100373400D01*
X158888517Y-100373400D01*
X158909102Y-100423097D01*
X159043820Y-100624717D01*
X159215283Y-100796180D01*
X159416903Y-100930898D01*
X159640931Y-101023693D01*
X159878757Y-101071000D01*
X160121243Y-101071000D01*
X160359069Y-101023693D01*
X160583097Y-100930898D01*
X160784717Y-100796180D01*
X160956180Y-100624717D01*
X161090898Y-100423097D01*
X161183693Y-100199069D01*
X161231000Y-99961243D01*
X161231000Y-99718757D01*
X161183693Y-99480931D01*
X161090898Y-99256903D01*
X160956180Y-99055283D01*
X160784717Y-98883820D01*
X160583097Y-98749102D01*
X160359069Y-98656307D01*
X160121243Y-98609000D01*
X159878757Y-98609000D01*
X159640931Y-98656307D01*
X159416903Y-98749102D01*
X159215283Y-98883820D01*
X159043820Y-99055283D01*
X158909102Y-99256903D01*
X158888517Y-99306600D01*
X158586194Y-99306600D01*
X158560000Y-99304020D01*
X158533806Y-99306600D01*
X158533805Y-99306600D01*
X158455435Y-99314319D01*
X158354889Y-99344819D01*
X158262225Y-99394349D01*
X158181005Y-99461005D01*
X158164304Y-99481355D01*
X155341355Y-102304304D01*
X155321005Y-102321005D01*
X155254349Y-102402225D01*
X155204819Y-102494890D01*
X155174319Y-102595436D01*
X155166600Y-102673806D01*
X155166600Y-102673813D01*
X155164021Y-102700000D01*
X155166600Y-102726187D01*
X155166600Y-103125371D01*
X155126538Y-103129317D01*
X155007821Y-103165329D01*
X154898411Y-103223810D01*
X154802512Y-103302512D01*
X154723810Y-103398411D01*
X154665329Y-103507821D01*
X154653505Y-103546800D01*
X153902118Y-103546800D01*
X153891871Y-103513021D01*
X153833390Y-103403611D01*
X153754688Y-103307712D01*
X153658789Y-103229010D01*
X153549379Y-103170529D01*
X153430662Y-103134517D01*
X153307201Y-103122357D01*
X152407199Y-103122357D01*
X152283738Y-103134517D01*
X152165021Y-103170529D01*
X152055611Y-103229010D01*
X151959712Y-103307712D01*
X151915692Y-103361351D01*
X151699296Y-103144955D01*
X151682595Y-103124605D01*
X151601375Y-103057949D01*
X151508711Y-103008419D01*
X151408165Y-102977919D01*
X151329795Y-102970200D01*
X151329787Y-102970200D01*
X151303600Y-102967621D01*
X151277413Y-102970200D01*
X150329787Y-102970200D01*
X150303600Y-102967621D01*
X150277413Y-102970200D01*
X149983777Y-102970200D01*
X149979801Y-102957092D01*
X149944422Y-102890904D01*
X149896811Y-102832889D01*
X149838796Y-102785278D01*
X149772608Y-102749899D01*
X149700789Y-102728113D01*
X149626100Y-102720757D01*
X149509100Y-102720757D01*
X149509100Y-102594924D01*
X150716161Y-101387864D01*
X150740385Y-101367985D01*
X150760268Y-101343758D01*
X150819737Y-101271295D01*
X150859819Y-101196307D01*
X150878702Y-101160980D01*
X150915012Y-101041282D01*
X150924200Y-100947992D01*
X150924200Y-100947982D01*
X150927271Y-100916801D01*
X150924200Y-100885620D01*
X150924200Y-100846737D01*
X150936688Y-100836488D01*
X151015390Y-100740589D01*
X151073871Y-100631179D01*
X151109883Y-100512462D01*
X151122043Y-100389000D01*
X151122043Y-98239000D01*
X151109883Y-98115538D01*
X151073871Y-97996821D01*
X151015390Y-97887411D01*
X150936688Y-97791512D01*
X150840789Y-97712810D01*
X150731379Y-97654329D01*
X150612662Y-97618317D01*
X150489200Y-97606157D01*
X149564200Y-97606157D01*
X149440738Y-97618317D01*
X149322021Y-97654329D01*
X149212611Y-97712810D01*
X149116712Y-97791512D01*
X149038010Y-97887411D01*
X148979529Y-97996821D01*
X148943517Y-98115538D01*
X148931357Y-98239000D01*
X148931357Y-100389000D01*
X148943517Y-100512462D01*
X148979529Y-100631179D01*
X149038010Y-100740589D01*
X149116712Y-100836488D01*
X149212611Y-100915190D01*
X149322021Y-100973671D01*
X149331445Y-100976530D01*
X148531799Y-101776177D01*
X148476868Y-101709243D01*
X147744806Y-100977182D01*
X147756379Y-100973671D01*
X147865789Y-100915190D01*
X147961688Y-100836488D01*
X148040390Y-100740589D01*
X148098871Y-100631179D01*
X148134883Y-100512462D01*
X148147043Y-100389000D01*
X148147043Y-98239000D01*
X148134883Y-98115538D01*
X148098871Y-97996821D01*
X148040390Y-97887411D01*
X147961688Y-97791512D01*
X147865789Y-97712810D01*
X147756379Y-97654329D01*
X147637662Y-97618317D01*
X147514200Y-97606157D01*
X146589200Y-97606157D01*
X146465738Y-97618317D01*
X146347021Y-97654329D01*
X146237611Y-97712810D01*
X146141712Y-97791512D01*
X146063010Y-97887411D01*
X146004529Y-97996821D01*
X145968517Y-98115538D01*
X145956357Y-98239000D01*
X145956357Y-100389000D01*
X145968517Y-100512462D01*
X146004529Y-100631179D01*
X146063010Y-100740589D01*
X146141712Y-100836488D01*
X146154201Y-100846737D01*
X146154201Y-100888409D01*
X146151129Y-100919600D01*
X146154201Y-100950791D01*
X146154201Y-100950792D01*
X146163389Y-101044082D01*
X146174403Y-101080391D01*
X146199698Y-101163779D01*
X146258663Y-101274093D01*
X146258664Y-101274094D01*
X146338016Y-101370785D01*
X146362246Y-101390670D01*
X147497801Y-102526225D01*
X147497800Y-102720757D01*
X147376100Y-102720757D01*
X147301411Y-102728113D01*
X147229592Y-102749899D01*
X147163404Y-102785278D01*
X147105389Y-102832889D01*
X147057778Y-102890904D01*
X147022399Y-102957092D01*
X147018423Y-102970200D01*
X145782786Y-102970200D01*
X145756599Y-102967621D01*
X145730412Y-102970200D01*
X145730405Y-102970200D01*
X145652035Y-102977919D01*
X145551489Y-103008419D01*
X145458825Y-103057949D01*
X145377605Y-103124605D01*
X145360904Y-103144955D01*
X145329913Y-103175946D01*
X145319779Y-103170529D01*
X145201062Y-103134517D01*
X145133400Y-103127853D01*
X145133400Y-102990350D01*
X145162290Y-102961460D01*
X145241512Y-102842895D01*
X145296081Y-102711154D01*
X145323900Y-102571298D01*
X145323900Y-102428702D01*
X145296081Y-102288846D01*
X145241512Y-102157105D01*
X145162290Y-102038540D01*
X145061460Y-101937710D01*
X144942895Y-101858488D01*
X144811154Y-101803919D01*
X144671298Y-101776100D01*
X144528702Y-101776100D01*
X144388846Y-101803919D01*
X144257105Y-101858488D01*
X144138540Y-101937710D01*
X144037710Y-102038540D01*
X143958488Y-102157105D01*
X143903919Y-102288846D01*
X143876100Y-102428702D01*
X143876100Y-102571298D01*
X143903919Y-102711154D01*
X143958488Y-102842895D01*
X144037710Y-102961460D01*
X144066600Y-102990350D01*
X144066600Y-103133290D01*
X144054138Y-103134517D01*
X143935421Y-103170529D01*
X143826011Y-103229010D01*
X143730112Y-103307712D01*
X143651410Y-103403611D01*
X143592929Y-103513021D01*
X143582346Y-103547909D01*
X143515235Y-103554519D01*
X143414689Y-103585019D01*
X143322025Y-103634549D01*
X143240805Y-103701205D01*
X143224107Y-103721552D01*
X142841350Y-104104309D01*
X142821006Y-104121005D01*
X142804310Y-104141349D01*
X142804307Y-104141352D01*
X142791331Y-104157164D01*
X142754350Y-104202225D01*
X142754349Y-104202227D01*
X142704819Y-104294890D01*
X142674319Y-104395436D01*
X142664021Y-104500000D01*
X142456000Y-104500000D01*
X142456000Y-94956000D01*
X161544001Y-94956000D01*
X161544000Y-114044000D01*
G37*
X161544000Y-114044000D02*
X142456000Y-114044000D01*
X142456000Y-104500000D01*
X142664021Y-104500000D01*
X142666601Y-104526197D01*
X142666600Y-108873813D01*
X142664021Y-108900000D01*
X142666600Y-108926187D01*
X142666600Y-108926194D01*
X142674319Y-109004564D01*
X142704819Y-109105110D01*
X142754349Y-109197775D01*
X142821005Y-109278995D01*
X142841355Y-109295696D01*
X144104304Y-110558645D01*
X144117157Y-110574306D01*
X144117157Y-110650001D01*
X144129317Y-110773462D01*
X144165329Y-110892179D01*
X144223810Y-111001589D01*
X144302512Y-111097488D01*
X144398411Y-111176190D01*
X144507821Y-111234671D01*
X144626538Y-111270683D01*
X144749999Y-111282843D01*
X145400001Y-111282843D01*
X145523462Y-111270683D01*
X145642179Y-111234671D01*
X145751589Y-111176190D01*
X145847488Y-111097488D01*
X145926190Y-111001589D01*
X145984671Y-110892179D01*
X146020683Y-110773462D01*
X146032843Y-110650001D01*
X146032843Y-109749999D01*
X146020683Y-109626538D01*
X145984671Y-109507821D01*
X145926190Y-109398411D01*
X145847488Y-109302512D01*
X145751589Y-109223810D01*
X145642179Y-109165329D01*
X145523462Y-109129317D01*
X145400001Y-109117157D01*
X144749999Y-109117157D01*
X144626538Y-109129317D01*
X144507821Y-109165329D01*
X144398411Y-109223810D01*
X144332359Y-109278018D01*
X143733400Y-108679059D01*
X143733400Y-107309863D01*
X143803118Y-107331012D01*
X143927600Y-107343272D01*
X144341850Y-107340200D01*
X144500600Y-107181450D01*
X144500600Y-106257200D01*
X144480600Y-106257200D01*
X144480600Y-106003200D01*
X144500600Y-106003200D01*
X144500600Y-105983200D01*
X144754600Y-105983200D01*
X144754600Y-106003200D01*
X145803850Y-106003200D01*
X145962600Y-105844450D01*
X145965672Y-105555200D01*
X145953412Y-105430718D01*
X145917102Y-105311020D01*
X145858137Y-105200706D01*
X145778785Y-105104015D01*
X145682094Y-105024663D01*
X145571780Y-104965698D01*
X145452082Y-104929388D01*
X145433820Y-104927589D01*
X145525088Y-104852688D01*
X145603790Y-104756789D01*
X145662271Y-104647379D01*
X145698283Y-104528662D01*
X145710443Y-104405201D01*
X145710443Y-104294558D01*
X145783995Y-104234195D01*
X145800696Y-104213845D01*
X145977541Y-104037000D01*
X146810815Y-104037000D01*
X146775288Y-104154118D01*
X146763028Y-104278600D01*
X146766100Y-104717850D01*
X146924850Y-104876600D01*
X148374100Y-104876600D01*
X148374100Y-104856600D01*
X148628100Y-104856600D01*
X148628100Y-104876600D01*
X148648100Y-104876600D01*
X148648100Y-105130600D01*
X148628100Y-105130600D01*
X148628100Y-105150600D01*
X148374100Y-105150600D01*
X148374100Y-105130600D01*
X146924850Y-105130600D01*
X146766100Y-105289350D01*
X146763028Y-105728600D01*
X146775288Y-105853082D01*
X146811598Y-105972780D01*
X146838546Y-106023195D01*
X146773525Y-106057949D01*
X146720181Y-106101728D01*
X146692305Y-106124605D01*
X146675609Y-106144949D01*
X145937098Y-106883460D01*
X145953412Y-106829682D01*
X145965672Y-106705200D01*
X145962600Y-106415950D01*
X145803850Y-106257200D01*
X144754600Y-106257200D01*
X144754600Y-107181450D01*
X144913350Y-107340200D01*
X145327600Y-107343272D01*
X145452082Y-107331012D01*
X145571780Y-107294702D01*
X145668163Y-107243183D01*
X145611688Y-107327705D01*
X145557119Y-107459446D01*
X145529300Y-107599302D01*
X145529300Y-107741898D01*
X145557119Y-107881754D01*
X145611688Y-108013495D01*
X145690910Y-108132060D01*
X145791740Y-108232890D01*
X145910305Y-108312112D01*
X146042046Y-108366681D01*
X146181902Y-108394500D01*
X146324498Y-108394500D01*
X146464354Y-108366681D01*
X146596095Y-108312112D01*
X146714660Y-108232890D01*
X146815490Y-108132060D01*
X146894712Y-108013495D01*
X146895639Y-108011256D01*
X146907088Y-108038895D01*
X146986310Y-108157460D01*
X147087140Y-108258290D01*
X147205705Y-108337512D01*
X147337446Y-108392081D01*
X147477302Y-108419900D01*
X147619898Y-108419900D01*
X147759754Y-108392081D01*
X147891495Y-108337512D01*
X147967700Y-108286594D01*
X147967701Y-109388067D01*
X147897488Y-109302512D01*
X147801589Y-109223810D01*
X147692179Y-109165329D01*
X147573462Y-109129317D01*
X147450001Y-109117157D01*
X146799999Y-109117157D01*
X146676538Y-109129317D01*
X146557821Y-109165329D01*
X146448411Y-109223810D01*
X146352512Y-109302512D01*
X146273810Y-109398411D01*
X146215329Y-109507821D01*
X146179317Y-109626538D01*
X146167157Y-109749999D01*
X146167157Y-110650001D01*
X146179317Y-110773462D01*
X146215329Y-110892179D01*
X146273810Y-111001589D01*
X146352512Y-111097488D01*
X146448411Y-111176190D01*
X146557821Y-111234671D01*
X146676538Y-111270683D01*
X146799999Y-111282843D01*
X147450001Y-111282843D01*
X147573462Y-111270683D01*
X147692179Y-111234671D01*
X147801589Y-111176190D01*
X147897488Y-111097488D01*
X147976190Y-111001589D01*
X148034671Y-110892179D01*
X148070683Y-110773462D01*
X148079568Y-110683247D01*
X148917157Y-110638575D01*
X148917157Y-110650001D01*
X148929317Y-110773462D01*
X148965329Y-110892179D01*
X149023810Y-111001589D01*
X149102512Y-111097488D01*
X149198411Y-111176190D01*
X149307821Y-111234671D01*
X149426538Y-111270683D01*
X149549999Y-111282843D01*
X150200001Y-111282843D01*
X150323462Y-111270683D01*
X150442179Y-111234671D01*
X150551589Y-111176190D01*
X150647488Y-111097488D01*
X150722389Y-111006220D01*
X150724188Y-111024482D01*
X150760498Y-111144180D01*
X150819463Y-111254494D01*
X150898815Y-111351185D01*
X150995506Y-111430537D01*
X151105820Y-111489502D01*
X151225518Y-111525812D01*
X151350000Y-111538072D01*
X151639250Y-111535000D01*
X151798000Y-111376250D01*
X151798000Y-110327000D01*
X152052000Y-110327000D01*
X152052000Y-111376250D01*
X152210750Y-111535000D01*
X152500000Y-111538072D01*
X152624482Y-111525812D01*
X152744180Y-111489502D01*
X152854494Y-111430537D01*
X152951185Y-111351185D01*
X153030537Y-111254494D01*
X153089502Y-111144180D01*
X153125812Y-111024482D01*
X153138072Y-110900000D01*
X153137702Y-110850000D01*
X158511928Y-110850000D01*
X158524188Y-110974482D01*
X158560498Y-111094180D01*
X158619463Y-111204494D01*
X158698815Y-111301185D01*
X158795506Y-111380537D01*
X158905820Y-111439502D01*
X159025518Y-111475812D01*
X159150000Y-111488072D01*
X159714250Y-111485000D01*
X159873000Y-111326250D01*
X159873000Y-110127000D01*
X160127000Y-110127000D01*
X160127000Y-111326250D01*
X160285750Y-111485000D01*
X160850000Y-111488072D01*
X160974482Y-111475812D01*
X161094180Y-111439502D01*
X161204494Y-111380537D01*
X161301185Y-111301185D01*
X161380537Y-111204494D01*
X161439502Y-111094180D01*
X161475812Y-110974482D01*
X161488072Y-110850000D01*
X161485000Y-110285750D01*
X161326250Y-110127000D01*
X160127000Y-110127000D01*
X159873000Y-110127000D01*
X158673750Y-110127000D01*
X158515000Y-110285750D01*
X158511928Y-110850000D01*
X153137702Y-110850000D01*
X153135000Y-110485750D01*
X152976250Y-110327000D01*
X152052000Y-110327000D01*
X151798000Y-110327000D01*
X151778000Y-110327000D01*
X151778000Y-110073000D01*
X151798000Y-110073000D01*
X151798000Y-109023750D01*
X152052000Y-109023750D01*
X152052000Y-110073000D01*
X152976250Y-110073000D01*
X153135000Y-109914250D01*
X153138072Y-109500000D01*
X153125812Y-109375518D01*
X153089502Y-109255820D01*
X153032940Y-109150000D01*
X158511928Y-109150000D01*
X158515000Y-109714250D01*
X158673750Y-109873000D01*
X159873000Y-109873000D01*
X159873000Y-109853000D01*
X160127000Y-109853000D01*
X160127000Y-109873000D01*
X161326250Y-109873000D01*
X161485000Y-109714250D01*
X161488072Y-109150000D01*
X161475812Y-109025518D01*
X161439502Y-108905820D01*
X161380537Y-108795506D01*
X161301185Y-108698815D01*
X161204494Y-108619463D01*
X161094180Y-108560498D01*
X160974482Y-108524188D01*
X160850000Y-108511928D01*
X160639706Y-108513073D01*
X160784717Y-108416180D01*
X160956180Y-108244717D01*
X161090898Y-108043097D01*
X161183693Y-107819069D01*
X161231000Y-107581243D01*
X161231000Y-107338757D01*
X161183693Y-107100931D01*
X161090898Y-106876903D01*
X160956180Y-106675283D01*
X160784717Y-106503820D01*
X160583097Y-106369102D01*
X160359069Y-106276307D01*
X160121243Y-106229000D01*
X159878757Y-106229000D01*
X159640931Y-106276307D01*
X159416903Y-106369102D01*
X159215283Y-106503820D01*
X159043820Y-106675283D01*
X158909102Y-106876903D01*
X158816307Y-107100931D01*
X158769000Y-107338757D01*
X158769000Y-107581243D01*
X158816307Y-107819069D01*
X158909102Y-108043097D01*
X159043820Y-108244717D01*
X159215283Y-108416180D01*
X159360294Y-108513073D01*
X159150000Y-108511928D01*
X159025518Y-108524188D01*
X158905820Y-108560498D01*
X158795506Y-108619463D01*
X158698815Y-108698815D01*
X158619463Y-108795506D01*
X158560498Y-108905820D01*
X158524188Y-109025518D01*
X158511928Y-109150000D01*
X153032940Y-109150000D01*
X153030537Y-109145506D01*
X152951185Y-109048815D01*
X152854494Y-108969463D01*
X152744180Y-108910498D01*
X152624482Y-108874188D01*
X152500000Y-108861928D01*
X152210750Y-108865000D01*
X152052000Y-109023750D01*
X151798000Y-109023750D01*
X151639250Y-108865000D01*
X151350000Y-108861928D01*
X151225518Y-108874188D01*
X151105820Y-108910498D01*
X150995506Y-108969463D01*
X150898815Y-109048815D01*
X150819463Y-109145506D01*
X150760498Y-109255820D01*
X150724188Y-109375518D01*
X150722389Y-109393780D01*
X150647488Y-109302512D01*
X150551589Y-109223810D01*
X150442179Y-109165329D01*
X150323462Y-109129317D01*
X150200001Y-109117157D01*
X149549999Y-109117157D01*
X149426538Y-109129317D01*
X149307821Y-109165329D01*
X149198411Y-109223810D01*
X149102512Y-109302512D01*
X149036856Y-109382515D01*
X149034500Y-109380159D01*
X149034500Y-107784105D01*
X149026781Y-107705735D01*
X149009100Y-107647448D01*
X149009100Y-107538600D01*
X149128102Y-107538600D01*
X149128102Y-107506852D01*
X149159850Y-107538600D01*
X149265262Y-107526312D01*
X149384073Y-107487197D01*
X149492970Y-107425656D01*
X149587769Y-107344052D01*
X149633384Y-107285726D01*
X149700789Y-107279087D01*
X149772608Y-107257301D01*
X149838796Y-107221922D01*
X149896811Y-107174311D01*
X149944422Y-107116296D01*
X149979801Y-107050108D01*
X149984599Y-107034291D01*
X150035465Y-107029281D01*
X150136011Y-106998781D01*
X150228675Y-106949251D01*
X150309895Y-106882595D01*
X150326595Y-106862246D01*
X150483641Y-106705200D01*
X151519128Y-106705200D01*
X151531388Y-106829682D01*
X151567698Y-106949380D01*
X151626663Y-107059694D01*
X151706015Y-107156385D01*
X151802706Y-107235737D01*
X151913020Y-107294702D01*
X152032718Y-107331012D01*
X152157200Y-107343272D01*
X152571450Y-107340200D01*
X152730200Y-107181450D01*
X152730200Y-106257200D01*
X152984200Y-106257200D01*
X152984200Y-107181450D01*
X153142950Y-107340200D01*
X153557200Y-107343272D01*
X153681682Y-107331012D01*
X153801380Y-107294702D01*
X153911694Y-107235737D01*
X154008385Y-107156385D01*
X154087737Y-107059694D01*
X154146702Y-106949380D01*
X154183012Y-106829682D01*
X154195272Y-106705200D01*
X154195217Y-106700000D01*
X154361928Y-106700000D01*
X154374188Y-106824482D01*
X154410498Y-106944180D01*
X154469463Y-107054494D01*
X154548815Y-107151185D01*
X154645506Y-107230537D01*
X154755820Y-107289502D01*
X154875518Y-107325812D01*
X155000000Y-107338072D01*
X155414250Y-107335000D01*
X155573000Y-107176250D01*
X155573000Y-106252000D01*
X155827000Y-106252000D01*
X155827000Y-107176250D01*
X155985750Y-107335000D01*
X156400000Y-107338072D01*
X156524482Y-107325812D01*
X156644180Y-107289502D01*
X156754494Y-107230537D01*
X156851185Y-107151185D01*
X156930537Y-107054494D01*
X156989502Y-106944180D01*
X157025812Y-106824482D01*
X157038072Y-106700000D01*
X157035000Y-106410750D01*
X156876250Y-106252000D01*
X155827000Y-106252000D01*
X155573000Y-106252000D01*
X154523750Y-106252000D01*
X154365000Y-106410750D01*
X154361928Y-106700000D01*
X154195217Y-106700000D01*
X154192200Y-106415950D01*
X154033450Y-106257200D01*
X152984200Y-106257200D01*
X152730200Y-106257200D01*
X151680950Y-106257200D01*
X151522200Y-106415950D01*
X151519128Y-106705200D01*
X150483641Y-106705200D01*
X150858651Y-106330191D01*
X150878995Y-106313495D01*
X150945651Y-106232275D01*
X150995181Y-106139611D01*
X151025681Y-106039065D01*
X151033400Y-105960695D01*
X151033400Y-105960687D01*
X151035979Y-105934500D01*
X151033400Y-105908313D01*
X151033400Y-104037000D01*
X151082659Y-104037000D01*
X151484504Y-104438845D01*
X151501205Y-104459195D01*
X151582425Y-104525851D01*
X151675089Y-104575381D01*
X151775635Y-104605881D01*
X151810997Y-104609364D01*
X151822529Y-104647379D01*
X151881010Y-104756789D01*
X151959712Y-104852688D01*
X152050980Y-104927589D01*
X152032718Y-104929388D01*
X151913020Y-104965698D01*
X151802706Y-105024663D01*
X151706015Y-105104015D01*
X151626663Y-105200706D01*
X151567698Y-105311020D01*
X151531388Y-105430718D01*
X151519128Y-105555200D01*
X151522200Y-105844450D01*
X151680950Y-106003200D01*
X152730200Y-106003200D01*
X152730200Y-105983200D01*
X152984200Y-105983200D01*
X152984200Y-106003200D01*
X154033450Y-106003200D01*
X154192200Y-105844450D01*
X154195272Y-105555200D01*
X154183012Y-105430718D01*
X154146702Y-105311020D01*
X154087737Y-105200706D01*
X154008385Y-105104015D01*
X153911694Y-105024663D01*
X153801380Y-104965698D01*
X153681682Y-104929388D01*
X153663420Y-104927589D01*
X153754688Y-104852688D01*
X153833390Y-104756789D01*
X153891871Y-104647379D01*
X153902118Y-104613600D01*
X154656660Y-104613600D01*
X154665329Y-104642179D01*
X154723810Y-104751589D01*
X154802512Y-104847488D01*
X154893780Y-104922389D01*
X154875518Y-104924188D01*
X154755820Y-104960498D01*
X154645506Y-105019463D01*
X154548815Y-105098815D01*
X154469463Y-105195506D01*
X154410498Y-105305820D01*
X154374188Y-105425518D01*
X154361928Y-105550000D01*
X154365000Y-105839250D01*
X154523750Y-105998000D01*
X155573000Y-105998000D01*
X155573000Y-105978000D01*
X155827000Y-105978000D01*
X155827000Y-105998000D01*
X156876250Y-105998000D01*
X157035000Y-105839250D01*
X157038072Y-105550000D01*
X157025812Y-105425518D01*
X156989502Y-105305820D01*
X156930537Y-105195506D01*
X156851185Y-105098815D01*
X156754494Y-105019463D01*
X156644180Y-104960498D01*
X156524482Y-104924188D01*
X156506220Y-104922389D01*
X156597488Y-104847488D01*
X156637480Y-104798757D01*
X158769000Y-104798757D01*
X158769000Y-105041243D01*
X158816307Y-105279069D01*
X158909102Y-105503097D01*
X159043820Y-105704717D01*
X159215283Y-105876180D01*
X159416903Y-106010898D01*
X159640931Y-106103693D01*
X159878757Y-106151000D01*
X160121243Y-106151000D01*
X160359069Y-106103693D01*
X160583097Y-106010898D01*
X160784717Y-105876180D01*
X160956180Y-105704717D01*
X161090898Y-105503097D01*
X161183693Y-105279069D01*
X161231000Y-105041243D01*
X161231000Y-104798757D01*
X161183693Y-104560931D01*
X161090898Y-104336903D01*
X160956180Y-104135283D01*
X160784717Y-103963820D01*
X160583097Y-103829102D01*
X160359069Y-103736307D01*
X160121243Y-103689000D01*
X159878757Y-103689000D01*
X159640931Y-103736307D01*
X159416903Y-103829102D01*
X159215283Y-103963820D01*
X159043820Y-104135283D01*
X158909102Y-104336903D01*
X158816307Y-104560931D01*
X158769000Y-104798757D01*
X156637480Y-104798757D01*
X156676190Y-104751589D01*
X156734671Y-104642179D01*
X156770683Y-104523462D01*
X156782843Y-104400001D01*
X156782843Y-103749999D01*
X156770683Y-103626538D01*
X156734671Y-103507821D01*
X156676190Y-103398411D01*
X156597488Y-103302512D01*
X156501589Y-103223810D01*
X156392179Y-103165329D01*
X156273462Y-103129317D01*
X156233400Y-103125371D01*
X156233400Y-102920941D01*
X156895584Y-102258757D01*
X158769000Y-102258757D01*
X158769000Y-102501243D01*
X158816307Y-102739069D01*
X158909102Y-102963097D01*
X159043820Y-103164717D01*
X159215283Y-103336180D01*
X159416903Y-103470898D01*
X159640931Y-103563693D01*
X159878757Y-103611000D01*
X160121243Y-103611000D01*
X160359069Y-103563693D01*
X160583097Y-103470898D01*
X160784717Y-103336180D01*
X160956180Y-103164717D01*
X161090898Y-102963097D01*
X161183693Y-102739069D01*
X161231000Y-102501243D01*
X161231000Y-102258757D01*
X161183693Y-102020931D01*
X161090898Y-101796903D01*
X160956180Y-101595283D01*
X160784717Y-101423820D01*
X160583097Y-101289102D01*
X160359069Y-101196307D01*
X160121243Y-101149000D01*
X159878757Y-101149000D01*
X159640931Y-101196307D01*
X159416903Y-101289102D01*
X159215283Y-101423820D01*
X159043820Y-101595283D01*
X158909102Y-101796903D01*
X158816307Y-102020931D01*
X158769000Y-102258757D01*
X156895584Y-102258757D01*
X158780941Y-100373400D01*
X158888517Y-100373400D01*
X158909102Y-100423097D01*
X159043820Y-100624717D01*
X159215283Y-100796180D01*
X159416903Y-100930898D01*
X159640931Y-101023693D01*
X159878757Y-101071000D01*
X160121243Y-101071000D01*
X160359069Y-101023693D01*
X160583097Y-100930898D01*
X160784717Y-100796180D01*
X160956180Y-100624717D01*
X161090898Y-100423097D01*
X161183693Y-100199069D01*
X161231000Y-99961243D01*
X161231000Y-99718757D01*
X161183693Y-99480931D01*
X161090898Y-99256903D01*
X160956180Y-99055283D01*
X160784717Y-98883820D01*
X160583097Y-98749102D01*
X160359069Y-98656307D01*
X160121243Y-98609000D01*
X159878757Y-98609000D01*
X159640931Y-98656307D01*
X159416903Y-98749102D01*
X159215283Y-98883820D01*
X159043820Y-99055283D01*
X158909102Y-99256903D01*
X158888517Y-99306600D01*
X158586194Y-99306600D01*
X158560000Y-99304020D01*
X158533806Y-99306600D01*
X158533805Y-99306600D01*
X158455435Y-99314319D01*
X158354889Y-99344819D01*
X158262225Y-99394349D01*
X158181005Y-99461005D01*
X158164304Y-99481355D01*
X155341355Y-102304304D01*
X155321005Y-102321005D01*
X155254349Y-102402225D01*
X155204819Y-102494890D01*
X155174319Y-102595436D01*
X155166600Y-102673806D01*
X155166600Y-102673813D01*
X155164021Y-102700000D01*
X155166600Y-102726187D01*
X155166600Y-103125371D01*
X155126538Y-103129317D01*
X155007821Y-103165329D01*
X154898411Y-103223810D01*
X154802512Y-103302512D01*
X154723810Y-103398411D01*
X154665329Y-103507821D01*
X154653505Y-103546800D01*
X153902118Y-103546800D01*
X153891871Y-103513021D01*
X153833390Y-103403611D01*
X153754688Y-103307712D01*
X153658789Y-103229010D01*
X153549379Y-103170529D01*
X153430662Y-103134517D01*
X153307201Y-103122357D01*
X152407199Y-103122357D01*
X152283738Y-103134517D01*
X152165021Y-103170529D01*
X152055611Y-103229010D01*
X151959712Y-103307712D01*
X151915692Y-103361351D01*
X151699296Y-103144955D01*
X151682595Y-103124605D01*
X151601375Y-103057949D01*
X151508711Y-103008419D01*
X151408165Y-102977919D01*
X151329795Y-102970200D01*
X151329787Y-102970200D01*
X151303600Y-102967621D01*
X151277413Y-102970200D01*
X150329787Y-102970200D01*
X150303600Y-102967621D01*
X150277413Y-102970200D01*
X149983777Y-102970200D01*
X149979801Y-102957092D01*
X149944422Y-102890904D01*
X149896811Y-102832889D01*
X149838796Y-102785278D01*
X149772608Y-102749899D01*
X149700789Y-102728113D01*
X149626100Y-102720757D01*
X149509100Y-102720757D01*
X149509100Y-102594924D01*
X150716161Y-101387864D01*
X150740385Y-101367985D01*
X150760268Y-101343758D01*
X150819737Y-101271295D01*
X150859819Y-101196307D01*
X150878702Y-101160980D01*
X150915012Y-101041282D01*
X150924200Y-100947992D01*
X150924200Y-100947982D01*
X150927271Y-100916801D01*
X150924200Y-100885620D01*
X150924200Y-100846737D01*
X150936688Y-100836488D01*
X151015390Y-100740589D01*
X151073871Y-100631179D01*
X151109883Y-100512462D01*
X151122043Y-100389000D01*
X151122043Y-98239000D01*
X151109883Y-98115538D01*
X151073871Y-97996821D01*
X151015390Y-97887411D01*
X150936688Y-97791512D01*
X150840789Y-97712810D01*
X150731379Y-97654329D01*
X150612662Y-97618317D01*
X150489200Y-97606157D01*
X149564200Y-97606157D01*
X149440738Y-97618317D01*
X149322021Y-97654329D01*
X149212611Y-97712810D01*
X149116712Y-97791512D01*
X149038010Y-97887411D01*
X148979529Y-97996821D01*
X148943517Y-98115538D01*
X148931357Y-98239000D01*
X148931357Y-100389000D01*
X148943517Y-100512462D01*
X148979529Y-100631179D01*
X149038010Y-100740589D01*
X149116712Y-100836488D01*
X149212611Y-100915190D01*
X149322021Y-100973671D01*
X149331445Y-100976530D01*
X148531799Y-101776177D01*
X148476868Y-101709243D01*
X147744806Y-100977182D01*
X147756379Y-100973671D01*
X147865789Y-100915190D01*
X147961688Y-100836488D01*
X148040390Y-100740589D01*
X148098871Y-100631179D01*
X148134883Y-100512462D01*
X148147043Y-100389000D01*
X148147043Y-98239000D01*
X148134883Y-98115538D01*
X148098871Y-97996821D01*
X148040390Y-97887411D01*
X147961688Y-97791512D01*
X147865789Y-97712810D01*
X147756379Y-97654329D01*
X147637662Y-97618317D01*
X147514200Y-97606157D01*
X146589200Y-97606157D01*
X146465738Y-97618317D01*
X146347021Y-97654329D01*
X146237611Y-97712810D01*
X146141712Y-97791512D01*
X146063010Y-97887411D01*
X146004529Y-97996821D01*
X145968517Y-98115538D01*
X145956357Y-98239000D01*
X145956357Y-100389000D01*
X145968517Y-100512462D01*
X146004529Y-100631179D01*
X146063010Y-100740589D01*
X146141712Y-100836488D01*
X146154201Y-100846737D01*
X146154201Y-100888409D01*
X146151129Y-100919600D01*
X146154201Y-100950791D01*
X146154201Y-100950792D01*
X146163389Y-101044082D01*
X146174403Y-101080391D01*
X146199698Y-101163779D01*
X146258663Y-101274093D01*
X146258664Y-101274094D01*
X146338016Y-101370785D01*
X146362246Y-101390670D01*
X147497801Y-102526225D01*
X147497800Y-102720757D01*
X147376100Y-102720757D01*
X147301411Y-102728113D01*
X147229592Y-102749899D01*
X147163404Y-102785278D01*
X147105389Y-102832889D01*
X147057778Y-102890904D01*
X147022399Y-102957092D01*
X147018423Y-102970200D01*
X145782786Y-102970200D01*
X145756599Y-102967621D01*
X145730412Y-102970200D01*
X145730405Y-102970200D01*
X145652035Y-102977919D01*
X145551489Y-103008419D01*
X145458825Y-103057949D01*
X145377605Y-103124605D01*
X145360904Y-103144955D01*
X145329913Y-103175946D01*
X145319779Y-103170529D01*
X145201062Y-103134517D01*
X145133400Y-103127853D01*
X145133400Y-102990350D01*
X145162290Y-102961460D01*
X145241512Y-102842895D01*
X145296081Y-102711154D01*
X145323900Y-102571298D01*
X145323900Y-102428702D01*
X145296081Y-102288846D01*
X145241512Y-102157105D01*
X145162290Y-102038540D01*
X145061460Y-101937710D01*
X144942895Y-101858488D01*
X144811154Y-101803919D01*
X144671298Y-101776100D01*
X144528702Y-101776100D01*
X144388846Y-101803919D01*
X144257105Y-101858488D01*
X144138540Y-101937710D01*
X144037710Y-102038540D01*
X143958488Y-102157105D01*
X143903919Y-102288846D01*
X143876100Y-102428702D01*
X143876100Y-102571298D01*
X143903919Y-102711154D01*
X143958488Y-102842895D01*
X144037710Y-102961460D01*
X144066600Y-102990350D01*
X144066600Y-103133290D01*
X144054138Y-103134517D01*
X143935421Y-103170529D01*
X143826011Y-103229010D01*
X143730112Y-103307712D01*
X143651410Y-103403611D01*
X143592929Y-103513021D01*
X143582346Y-103547909D01*
X143515235Y-103554519D01*
X143414689Y-103585019D01*
X143322025Y-103634549D01*
X143240805Y-103701205D01*
X143224107Y-103721552D01*
X142841350Y-104104309D01*
X142821006Y-104121005D01*
X142804310Y-104141349D01*
X142804307Y-104141352D01*
X142791331Y-104157164D01*
X142754350Y-104202225D01*
X142754349Y-104202227D01*
X142704819Y-104294890D01*
X142674319Y-104395436D01*
X142664021Y-104500000D01*
X142456000Y-104500000D01*
X142456000Y-94956000D01*
X161544001Y-94956000D01*
X161544000Y-114044000D01*
M02*
